<?xml version="1.0" encoding="utf-8"?>
<!-- Generator: Adobe Illustrator 28.0.0, SVG Export Plug-In . SVG Version: 6.00 Build 0)  -->
<svg version="1.1" id="Layer_1" xmlns="http://www.w3.org/2000/svg" xmlns:xlink="http://www.w3.org/1999/xlink" x="0px" y="0px"
	 viewBox="0 0 152 155.8" style="enable-background:new 0 0 152 155.8;" xml:space="preserve">
<style type="text/css">
	.st0{fill:none;stroke:#000000;stroke-miterlimit:10;stroke-dasharray:4,4;}
	.st1{fill:none;stroke:#000000;stroke-width:4;stroke-miterlimit:10;}
</style>
<line class="st0" x1="136.7" y1="145.2" x2="14.7" y2="145.2"/>
<path class="st1" d="M143.1,8.9C57.1,9,89.3,146,3,145.9"/>
<line class="st0" x1="13.5" y1="9.5" x2="135.5" y2="9.4"/>
<path d="M144.3,139.9c-2.7-1.7-6.2-0.9-7.9,1.9c-1.7,2.7-0.8,6.3,1.9,8c2.7,1.7,6.2,0.9,7.9-1.9C147.8,145.2,147,141.6,144.3,139.9z
	"/>
<path d="M4.9,149.8c2.7,1.7,6.2,0.9,7.9-1.9c1.7-2.7,0.8-6.3-1.9-8c-2.7-1.7-6.2-0.9-7.9,1.9C1.4,144.5,2.2,148.1,4.9,149.8z"/>
<path d="M4.9,12.8c2.7,1.7,6.2,0.9,7.9-1.9c1.7-2.7,0.8-6.3-1.9-8C8.2,1.2,4.7,2.1,3,4.8C1.4,7.5,2.2,11.1,4.9,12.8z"/>
<path d="M144.3,3.9c-2.7-1.7-6.2-0.9-7.9,1.9c-1.7,2.7-0.8,6.3,1.9,8c2.7,1.7,6.2,0.9,7.9-1.9C147.8,9.2,147,5.6,144.3,3.9z"/>
</svg>
