<?xml version="1.0" encoding="utf-8"?>
<!-- Generator: Adobe Illustrator 28.0.0, SVG Export Plug-In . SVG Version: 6.00 Build 0)  -->
<svg version="1.1" id="Layer_1" xmlns="http://www.w3.org/2000/svg" xmlns:xlink="http://www.w3.org/1999/xlink" x="0px" y="0px"
	 viewBox="0 0 1267.3 91.4" style="enable-background:new 0 0 1267.3 91.4;" xml:space="preserve">
<style type="text/css">
	.st0{fill:#442CEB;}
	.st1{display:none;}
	.st2{display:inline;fill:none;stroke:#248D55;stroke-width:9;stroke-miterlimit:30;}
	.st3{fill:#F2702F;}
</style>
<g id="Layer_3">
	<g>
		<circle class="st0" cx="16.1" cy="61.2" r="16.2"/>
		<path class="st0" d="M-0.1,60.8c0.1-4.3,1.9-8.3,5-11.3c3.1-3,7.2-4.6,11.6-4.5c4.3,0.1,8.3,1.9,11.3,5c3,3.1,4.6,7.2,4.5,11.6
			s-1.9,8.3-5,11.3s-7.2,4.6-11.6,4.5c-4.3-0.1-8.3-1.9-11.3-5C1.4,69.3-0.2,65.1-0.1,60.8 M-0.2,60.8c-0.2,9,7,16.5,16,16.7
			c9,0.2,16.5-7,16.7-16c0.2-9-6.9-16.5-16-16.7S0,51.8-0.2,60.8L-0.2,60.8z"/>
	</g>
	<g>
		<circle class="st0" cx="48.7" cy="61.9" r="16.2"/>
		<path class="st0" d="M32.6,61.5c0.1-4.3,1.9-8.3,5-11.3c3.1-3,7.2-4.6,11.6-4.5c4.3,0.1,8.3,1.9,11.3,5c3,3.1,4.6,7.2,4.5,11.6
			c-0.1,4.3-1.9,8.3-5,11.3c-3.1,3-7.2,4.6-11.6,4.5C44,78,40,76.2,37,73.1C34.1,69.9,32.5,65.8,32.6,61.5 M32.4,61.5
			c-0.2,9,7,16.5,16,16.7s16.5-7,16.7-16s-7-16.5-16-16.7C40.1,45.4,32.6,52.5,32.4,61.5L32.4,61.5z"/>
	</g>
	<g>
		<ellipse class="st0" cx="49.4" cy="29.2" rx="16.2" ry="16.2"/>
		<path class="st0" d="M33.2,28.9c0.1-4.3,1.9-8.3,5-11.3s7.2-4.6,11.6-4.5c4.3,0.1,8.3,1.9,11.3,5s4.6,7.2,4.5,11.6
			c-0.1,4.3-1.9,8.3-5,11.3c-3.1,3-7.2,4.6-11.6,4.5c-4.3-0.1-8.3-1.9-11.3-5C34.8,37.3,33.1,33.2,33.2,28.9 M33.1,28.9
			c-0.2,9,7,16.5,16,16.7c9,0.2,16.5-6.9,16.7-16s-7-16.5-16-16.7S33.3,19.9,33.1,28.9L33.1,28.9z"/>
	</g>
	<g>
		<ellipse class="st0" cx="16.9" cy="28.8" rx="16.2" ry="16.2"/>
		<path class="st0" d="M0.7,28.4c0.1-4.3,1.9-8.3,5-11.3c3.1-3,7.2-4.6,11.6-4.5c4.3,0.1,8.3,1.9,11.3,5c3,3.1,4.6,7.2,4.5,11.6
			c-0.1,4.3-1.9,8.3-5,11.3c-3.1,3-7.2,4.6-11.6,4.5s-8.3-1.9-11.3-5C2.3,36.8,0.7,32.8,0.7,28.4 M0.6,28.4c-0.2,9,7,16.5,16,16.7
			c9,0.2,16.5-6.9,16.7-16c0.2-9-7-16.5-16-16.7C8.3,12.3,0.8,19.4,0.6,28.4L0.6,28.4z"/>
	</g>
</g>
<g id="Layer_8" class="st1">
	<path class="st2" d="M1160.8,233.6c-2.7-8.3-21.4-16.4-33.1-16.4c-12.2,0-23.5,3.6-32.1,13.8c-8.4,9.9-11.7,31.5-6.6,49.4
		c8.6,30.3,69.7,78.1,72,78.1c2.4-0.1,63.3-47.8,72-78.1c5.1-18,1.8-39.6-6.6-49.4c-8.6-10.2-20-13.8-32.2-13.8
		c-11.7,0-30.4,8.1-33.1,16.4H1160.8z"/>
	<path class="st2" d="M1160.9,265.4c-2.7-8.3-21.4-16.4-33-16.4c-12.2,0-23.5,3.6-32.2,13.8c-8.4,9.9-11.7,31.5-6.6,49.4
		c8.8,30.3,69.7,78.1,72.1,78.1c2.4-0.1,63.3-47.8,72-78.1c5.1-18,1.8-39.6-6.6-49.4c-8.6-10.2-20-13.8-32.2-13.8
		c-11.7,0-30.7,8.1-33.4,16.4H1160.9L1160.9,265.4z"/>
	<line class="st2" x1="1161" y1="233.6" x2="1161" y2="265.4"/>
	<line class="st2" x1="1161" y1="358.6" x2="1161" y2="390.3"/>
</g>
<g id="Layer_4">
</g>
<g id="Layer_3_00000168081697299698195790000010363542166254796953_">
	<g>
		<circle class="st0" cx="80.9" cy="61.6" r="16.2"/>
		<path class="st0" d="M64.7,61.3c0.1-4.3,1.9-8.3,5-11.3c3.1-3,7.2-4.6,11.6-4.5c4.3,0.1,8.3,1.9,11.3,5c3,3.1,4.6,7.2,4.5,11.6
			c-0.1,4.3-1.9,8.3-5,11.3c-3.1,3-7.2,4.6-11.6,4.5c-4.3-0.1-8.3-1.9-11.3-5C66.3,69.7,64.6,65.6,64.7,61.3 M64.6,61.3
			c-0.2,9,7,16.5,16,16.7c9,0.2,16.5-7,16.7-16s-6.9-16.5-16-16.7S64.8,52.2,64.6,61.3L64.6,61.3z"/>
	</g>
	<g>
		<circle class="st0" cx="113.6" cy="62.3" r="16.2"/>
		<path class="st0" d="M97.4,61.9c0.1-4.3,1.9-8.3,5-11.3c3.1-3,7.2-4.6,11.6-4.5c4.3,0.1,8.3,1.9,11.3,5c3,3.1,4.6,7.2,4.5,11.6
			s-1.9,8.3-5,11.3c-3.1,3-7.2,4.6-11.6,4.5c-4.3-0.1-8.3-1.9-11.3-5C98.9,70.3,97.3,66.3,97.4,61.9 M97.2,61.9
			c-0.2,9,7,16.5,16,16.7s16.5-7,16.7-16s-7-16.5-16-16.7C104.9,45.8,97.4,52.9,97.2,61.9L97.2,61.9z"/>
	</g>
	<g>
		<ellipse class="st0" cx="114.3" cy="29.6" rx="16.2" ry="16.2"/>
		<path class="st0" d="M98.1,29.3c0.1-4.3,1.9-8.3,5-11.3c3.1-3,7.2-4.6,11.6-4.5c4.3,0.1,8.3,1.9,11.3,5c3,3.1,4.6,7.2,4.5,11.6
			c-0.1,4.3-1.9,8.3-5,11.3c-3.1,3-7.2,4.6-11.6,4.5c-4.3-0.1-8.3-1.9-11.3-5C99.6,37.7,98,33.6,98.1,29.3 M97.9,29.3
			c-0.2,9,7,16.5,16,16.7c9,0.2,16.5-6.9,16.7-16c0.2-9-7-16.5-16-16.7S98.1,20.3,97.9,29.3L97.9,29.3z"/>
	</g>
	<g>
		<ellipse class="st0" cx="81.8" cy="29.2" rx="16.2" ry="16.2"/>
		<path class="st0" d="M65.6,28.8c0.1-4.3,1.9-8.3,5-11.3c3.1-3,7.2-4.6,11.6-4.5c4.3,0.1,8.3,1.9,11.3,5c3,3.1,4.6,7.2,4.5,11.6
			c-0.1,4.3-1.9,8.3-5,11.3c-3.1,3-7.2,4.6-11.6,4.5c-4.3-0.1-8.3-1.9-11.3-5C67.1,37.3,65.5,33.2,65.6,28.8 M65.4,28.8
			c-0.2,9,7,16.5,16,16.7c9,0.2,16.5-6.9,16.7-16c0.2-9-7-16.5-16-16.7C73.1,12.7,65.6,19.8,65.4,28.8L65.4,28.8z"/>
	</g>
</g>
<g id="Layer_3_00000085951748778480163080000010424958883915201186_">
	<g>
		<circle class="st0" cx="145.9" cy="61.9" r="16.2"/>
		<path class="st0" d="M129.7,61.5c0.1-4.3,1.9-8.3,5-11.3c3.1-3,7.2-4.6,11.6-4.5c4.3,0.1,8.3,1.9,11.3,5c3,3.1,4.6,7.2,4.5,11.6
			c-0.1,4.3-1.9,8.3-5,11.3c-3.1,3-7.2,4.6-11.6,4.5c-4.3-0.1-8.3-1.9-11.3-5C131.2,69.9,129.6,65.8,129.7,61.5 M129.6,61.5
			c-0.2,9,7,16.5,16,16.7c9,0.2,16.5-7,16.7-16c0.2-9-6.9-16.5-16-16.7C137.2,45.3,129.8,52.5,129.6,61.5L129.6,61.5z"/>
	</g>
	<g>
		<circle class="st0" cx="178.6" cy="62.6" r="16.2"/>
		<path class="st0" d="M162.4,62.2c0.1-4.3,1.9-8.3,5-11.3c3.1-3,7.2-4.6,11.6-4.5c4.3,0.1,8.3,1.9,11.3,5c3,3.1,4.6,7.2,4.5,11.6
			c-0.1,4.3-1.9,8.3-5,11.3c-3.1,3-7.2,4.6-11.6,4.5c-4.3-0.1-8.3-1.9-11.3-5C163.9,70.6,162.3,66.5,162.4,62.2 M162.2,62.2
			c-0.2,9,7,16.5,16,16.7s16.5-7,16.7-16c0.2-9-7-16.5-16-16.7C169.9,46.1,162.4,53.2,162.2,62.2L162.2,62.2z"/>
	</g>
	<g>
		<ellipse class="st0" cx="179.2" cy="29.9" rx="16.2" ry="16.2"/>
		<path class="st0" d="M163.1,29.6c0.1-4.3,1.9-8.3,5-11.3c3.1-3,7.2-4.6,11.6-4.5c4.3,0.1,8.3,1.9,11.3,5c3,3.1,4.6,7.2,4.5,11.6
			c-0.1,4.3-1.9,8.3-5,11.3c-3.1,3-7.2,4.6-11.6,4.5c-4.3-0.1-8.3-1.9-11.3-5C164.6,38,163,33.9,163.1,29.6 M162.9,29.6
			c-0.2,9,7,16.5,16,16.7c9,0.2,16.5-6.9,16.7-16c0.2-9-7-16.5-16-16.7C170.6,13.4,163.1,20.5,162.9,29.6L162.9,29.6z"/>
	</g>
	<g>
		<ellipse class="st0" cx="146.8" cy="29.4" rx="16.2" ry="16.2"/>
		<path class="st0" d="M130.6,29.1c0.1-4.3,1.9-8.3,5-11.3c3.1-3,7.2-4.6,11.6-4.5c4.3,0.1,8.3,1.9,11.3,5c3,3.1,4.6,7.2,4.5,11.6
			c-0.1,4.3-1.9,8.3-5,11.3c-3.1,3-7.2,4.6-11.6,4.5s-8.3-1.9-11.3-5C132.1,37.5,130.5,33.4,130.6,29.1 M130.4,29.1
			c-0.2,9,7,16.5,16,16.7c9,0.2,16.5-6.9,16.7-16c0.2-9-7-16.5-16-16.7C138.1,12.9,130.6,20.1,130.4,29.1L130.4,29.1z"/>
	</g>
</g>
<g id="Layer_3_00000172401445249720656410000000149410305904303527_">
	<g>
		<circle class="st0" cx="210.3" cy="61.4" r="16.2"/>
		<path class="st0" d="M194.1,61.1c0.1-4.3,1.9-8.3,5-11.3c3.1-3,7.2-4.6,11.6-4.5c4.3,0.1,8.3,1.9,11.3,5c3,3.1,4.6,7.2,4.5,11.6
			c-0.1,4.3-1.9,8.3-5,11.3c-3.1,3-7.2,4.6-11.6,4.5c-4.3-0.1-8.3-1.9-11.3-5C195.6,69.5,194,65.4,194.1,61.1 M194,61.1
			c-0.2,9,7,16.5,16,16.7c9,0.2,16.5-7,16.7-16c0.2-9-6.9-16.5-16-16.7C201.6,44.9,194.2,52,194,61.1L194,61.1z"/>
	</g>
	<g>
		<circle class="st0" cx="242.9" cy="62.1" r="16.2"/>
		<path class="st0" d="M226.7,61.8c0.1-4.3,1.9-8.3,5-11.3c3.1-3,7.2-4.6,11.6-4.5c4.3,0.1,8.3,1.9,11.3,5c3,3.1,4.6,7.2,4.5,11.6
			c-0.1,4.3-1.9,8.3-5,11.3c-3.1,3-7.2,4.6-11.6,4.5c-4.3-0.1-8.3-1.9-11.3-5C228.2,70.2,226.6,66.1,226.7,61.8 M226.6,61.8
			c-0.2,9,7,16.5,16,16.7s16.5-7,16.7-16s-7-16.5-16-16.7C234.3,45.6,226.8,52.8,226.6,61.8L226.6,61.8z"/>
	</g>
	<g>
		<ellipse class="st0" cx="243.6" cy="29.5" rx="16.2" ry="16.2"/>
		<path class="st0" d="M227.4,29.1c0.1-4.3,1.9-8.3,5-11.3c3.1-3,7.2-4.6,11.6-4.5c4.3,0.1,8.3,1.9,11.3,5s4.6,7.2,4.5,11.6
			c-0.1,4.3-1.9,8.3-5,11.3c-3.1,3-7.2,4.6-11.6,4.5c-4.3-0.1-8.3-1.9-11.3-5C228.9,37.5,227.3,33.4,227.4,29.1 M227.3,29.1
			c-0.2,9,7,16.5,16,16.7c9,0.2,16.5-6.9,16.7-16s-7-16.5-16-16.7S227.5,20.1,227.3,29.1L227.3,29.1z"/>
	</g>
	<g>
		<ellipse class="st0" cx="211.1" cy="29" rx="16.2" ry="16.2"/>
		<path class="st0" d="M194.9,28.7c0.1-4.3,1.9-8.3,5-11.3c3.1-3,7.2-4.6,11.6-4.5c4.3,0.1,8.3,1.9,11.3,5c3,3.1,4.6,7.2,4.5,11.6
			c-0.1,4.3-1.9,8.3-5,11.3c-3.1,3-7.2,4.6-11.6,4.5s-8.3-1.9-11.3-5C196.4,37.1,194.8,33,194.9,28.7 M194.8,28.7
			c-0.2,9,7,16.5,16,16.7c9,0.2,16.5-6.9,16.7-16c0.2-9-7-16.5-16-16.7C202.5,12.5,195,19.6,194.8,28.7L194.8,28.7z"/>
	</g>
</g>
<g id="Layer_3_00000015324665942558816190000013793796881620159914_">
	<g>
		<circle class="st0" cx="275.2" cy="61.2" r="16.2"/>
		<path class="st0" d="M259.1,61c0-4.3,1.8-8.4,4.9-11.4c3.1-3,7.2-4.7,11.5-4.6c4.3,0.1,8.4,1.8,11.4,4.9c3,3.1,4.7,7.2,4.6,11.5
			s-1.8,8.3-4.9,11.4c-3.1,3-7.2,4.7-11.5,4.6c-4.3-0.1-8.4-1.8-11.4-4.9C260.6,69.4,259,65.3,259.1,61 M258.9,61
			c-0.1,9,7.1,16.4,16.1,16.5c9,0.1,16.4-7.1,16.5-16.1s-7.1-16.4-16.1-16.5C266.4,44.8,259,52,258.9,61L258.9,61z"/>
	</g>
	<g>
		<circle class="st0" cx="307.9" cy="61.6" r="16.2"/>
		<path class="st0" d="M291.7,61.4c0-4.3,1.8-8.4,4.9-11.4c3.1-3,7.2-4.7,11.5-4.6c4.3,0,8.4,1.8,11.4,4.9c3,3.1,4.7,7.2,4.6,11.5
			c-0.1,4.3-1.8,8.4-4.9,11.4c-3.1,3-7.2,4.7-11.5,4.6c-4.3-0.1-8.4-1.8-11.4-4.9C293.3,69.8,291.6,65.7,291.7,61.4 M291.6,61.4
			c-0.1,9,7.1,16.4,16.1,16.5s16.4-7.1,16.5-16.1s-7.1-16.4-16.1-16.5C299.1,45.2,291.7,52.4,291.6,61.4L291.6,61.4z"/>
	</g>
	<g>
		<ellipse class="st0" cx="308.3" cy="29" rx="16.2" ry="16.2"/>
		<path class="st0" d="M292.1,28.8c0-4.3,1.8-8.4,4.9-11.4c3.1-3,7.2-4.7,11.5-4.6c4.3,0,8.4,1.8,11.4,4.9c3,3.1,4.7,7.2,4.6,11.5
			c0,4.3-1.8,8.4-4.9,11.4c-3.1,3-7.2,4.7-11.5,4.6s-8.4-1.8-11.4-4.9C293.7,37.2,292.1,33.1,292.1,28.8 M292,28.8
			c-0.1,9,7.1,16.4,16.1,16.5c9,0.1,16.4-7.1,16.5-16.1s-7.1-16.4-16.1-16.5C299.5,12.5,292.1,19.8,292,28.8L292,28.8z"/>
	</g>
	<g>
		<ellipse class="st0" cx="275.8" cy="28.8" rx="16.2" ry="16.2"/>
		<path class="st0" d="M259.6,28.6c0-4.3,1.8-8.4,4.9-11.4c3.1-3,7.2-4.7,11.5-4.6c4.3,0,8.4,1.8,11.4,4.9c3,3.1,4.7,7.2,4.6,11.5
			c0,4.3-1.8,8.4-4.9,11.4c-3.1,3-7.2,4.7-11.5,4.6c-4.3-0.1-8.4-1.8-11.4-4.9C261.2,37,259.6,32.9,259.6,28.6 M259.5,28.6
			c-0.1,9,7.1,16.4,16.1,16.5c9,0.1,16.4-7.1,16.5-16.1S285,12.6,276,12.5C267,12.4,259.6,19.6,259.5,28.6L259.5,28.6z"/>
	</g>
</g>
<g id="Layer_3_00000183969908553479785760000012610455155300422836_">
	<g>
		<circle class="st0" cx="340.1" cy="61.4" r="16.2"/>
		<path class="st0" d="M323.9,61c0.1-4.3,1.9-8.3,5-11.3c3.1-3,7.2-4.6,11.6-4.5c4.3,0.1,8.3,1.9,11.3,5c3,3.1,4.6,7.2,4.5,11.6
			c-0.1,4.3-1.9,8.3-5,11.3s-7.2,4.6-11.6,4.5c-4.3-0.1-8.3-1.9-11.3-5C325.4,69.4,323.8,65.3,323.9,61 M323.8,61
			c-0.2,9,7,16.5,16,16.7s16.5-7,16.7-16c0.2-9-6.9-16.5-16-16.7S324,52,323.8,61L323.8,61z"/>
	</g>
	<g>
		<circle class="st0" cx="372.7" cy="62" r="16.2"/>
		<path class="st0" d="M356.6,61.7c0.1-4.3,1.9-8.3,5-11.3c3.1-3,7.2-4.6,11.6-4.5c4.3,0.1,8.3,1.9,11.3,5c3,3.1,4.6,7.2,4.5,11.6
			c-0.1,4.3-1.9,8.3-5,11.3c-3.1,3-7.2,4.6-11.6,4.5c-4.3-0.1-8.3-1.9-11.3-5C358.1,70.1,356.5,66,356.6,61.7 M356.4,61.7
			c-0.2,9,7,16.5,16,16.7c9,0.2,16.5-7,16.7-16c0.2-9-7-16.5-16-16.7C364.1,45.5,356.6,52.7,356.4,61.7L356.4,61.7z"/>
	</g>
	<g>
		<ellipse class="st0" cx="373.4" cy="29.4" rx="16.2" ry="16.2"/>
		<path class="st0" d="M357.2,29.1c0.1-4.3,1.9-8.3,5-11.3c3.1-3,7.2-4.6,11.6-4.5c4.3,0.1,8.3,1.9,11.3,5s4.6,7.2,4.5,11.6
			c-0.1,4.3-1.9,8.3-5,11.3c-3.1,3-7.2,4.6-11.6,4.5s-8.3-1.9-11.3-5C358.8,37.5,357.1,33.4,357.2,29.1 M357.1,29
			c-0.2,9,7,16.5,16,16.7c9,0.2,16.5-6.9,16.7-16c0.2-9-7-16.5-16-16.7S357.3,20,357.1,29L357.1,29z"/>
	</g>
	<g>
		<ellipse class="st0" cx="340.9" cy="28.9" rx="16.2" ry="16.2"/>
		<path class="st0" d="M324.7,28.6c0.1-4.3,1.9-8.3,5-11.3c3.1-3,7.2-4.6,11.6-4.5c4.3,0.1,8.3,1.9,11.3,5c3,3.1,4.6,7.2,4.5,11.6
			c-0.1,4.3-1.9,8.3-5,11.3c-3.1,3-7.2,4.6-11.6,4.5c-4.3-0.1-8.3-1.9-11.3-5C326.3,37,324.7,32.9,324.7,28.6 M324.6,28.6
			c-0.2,9,7,16.5,16,16.7c9,0.2,16.5-6.9,16.7-16c0.2-9-7-16.5-16-16.7C332.3,12.4,324.8,19.6,324.6,28.6L324.6,28.6z"/>
	</g>
</g>
<g id="Layer_3_00000088104979151682214380000000587322320041589404_">
	<g>
		<circle class="st0" cx="404.9" cy="61.1" r="16.2"/>
		<path class="st0" d="M388.7,60.7c0.1-4.3,1.9-8.3,5-11.3c3.1-3,7.2-4.6,11.6-4.5c4.3,0.1,8.3,1.9,11.3,5c3,3.1,4.6,7.2,4.5,11.6
			c-0.1,4.3-1.9,8.3-5,11.3s-7.2,4.6-11.6,4.5c-4.3-0.1-8.3-1.9-11.3-5C390.2,69.2,388.6,65,388.7,60.7 M388.6,60.7
			c-0.2,9,7,16.5,16,16.7s16.5-7,16.7-16c0.2-9-6.9-16.5-16-16.7C396.2,44.5,388.8,51.7,388.6,60.7L388.6,60.7z"/>
	</g>
	<g>
		<circle class="st0" cx="437.5" cy="61.8" r="16.2"/>
		<path class="st0" d="M421.3,61.4c0.1-4.3,1.9-8.3,5-11.3c3.1-3,7.2-4.6,11.6-4.5c4.3,0.1,8.3,1.9,11.3,5c3,3.1,4.6,7.2,4.5,11.6
			c-0.1,4.3-1.9,8.3-5,11.3c-3.1,3-7.2,4.6-11.6,4.5c-4.3-0.1-8.3-1.9-11.3-5C422.8,69.8,421.2,65.7,421.3,61.4 M421.2,61.4
			c-0.2,9,7,16.5,16,16.7c9,0.2,16.5-7,16.7-16c0.2-9-7-16.5-16-16.7C428.9,45.3,421.4,52.4,421.2,61.4L421.2,61.4z"/>
	</g>
	<g>
		<ellipse class="st0" cx="438.2" cy="29.1" rx="16.2" ry="16.2"/>
		<path class="st0" d="M422,28.8c0.1-4.3,1.9-8.3,5-11.3c3.1-3,7.2-4.6,11.6-4.5c4.3,0.1,8.3,1.9,11.3,5s4.6,7.2,4.5,11.6
			c-0.1,4.3-1.9,8.3-5,11.3c-3.1,3-7.2,4.6-11.6,4.5s-8.3-1.9-11.3-5C423.6,37.2,421.9,33.1,422,28.8 M421.9,28.8
			c-0.2,9,7,16.5,16,16.7c9,0.2,16.5-6.9,16.7-16c0.2-9-7-16.5-16-16.7S422.1,19.8,421.9,28.8L421.9,28.8z"/>
	</g>
	<g>
		<ellipse class="st0" cx="405.7" cy="28.6" rx="16.2" ry="16.2"/>
		<path class="st0" d="M389.5,28.3c0.1-4.3,1.9-8.3,5-11.3c3.1-3,7.2-4.6,11.6-4.5c4.3,0.1,8.3,1.9,11.3,5c3,3.1,4.6,7.2,4.5,11.6
			c-0.1,4.3-1.9,8.3-5,11.3c-3.1,3-7.2,4.6-11.6,4.5c-4.3-0.1-8.3-1.9-11.3-5C391,36.7,389.4,32.6,389.5,28.3 M389.4,28.3
			c-0.2,9,7,16.5,16,16.7c9,0.2,16.5-6.9,16.7-16c0.2-9-7-16.5-16-16.7C397.1,12.1,389.6,19.3,389.4,28.3L389.4,28.3z"/>
	</g>
</g>
<g id="Layer_3_00000081637014753679123020000009044559104570901656_">
	<g>
		<circle class="st0" cx="469.7" cy="60.7" r="16.2"/>
		<path class="st0" d="M453.5,60.4c0.1-4.3,1.9-8.3,5-11.3c3.1-3,7.2-4.6,11.6-4.5c4.3,0.1,8.3,1.9,11.3,5c3,3.1,4.6,7.2,4.5,11.6
			c-0.1,4.3-1.9,8.3-5,11.3c-3.1,3-7.2,4.6-11.6,4.5c-4.3-0.1-8.3-1.9-11.3-5C455,68.8,453.4,64.7,453.5,60.4 M453.4,60.4
			c-0.2,9,7,16.5,16,16.7c9,0.2,16.5-7,16.7-16s-6.9-16.5-16-16.7C461,44.2,453.6,51.4,453.4,60.4L453.4,60.4z"/>
	</g>
	<g>
		<circle class="st0" cx="502.4" cy="61.4" r="16.2"/>
		<path class="st0" d="M486.2,61.1c0.1-4.3,1.9-8.3,5-11.3c3.1-3,7.2-4.6,11.6-4.5c4.3,0.1,8.3,1.9,11.3,5c3,3.1,4.6,7.2,4.5,11.6
			s-1.9,8.3-5,11.3c-3.1,3-7.2,4.6-11.6,4.5c-4.3-0.1-8.3-1.9-11.3-5C487.7,69.5,486.1,65.4,486.2,61.1 M486,61.1
			c-0.2,9,7,16.5,16,16.7c9,0.2,16.5-7,16.7-16s-7-16.5-16-16.7C493.7,44.9,486.2,52.1,486,61.1L486,61.1z"/>
	</g>
	<g>
		<ellipse class="st0" cx="503" cy="28.8" rx="16.2" ry="16.2"/>
		<path class="st0" d="M486.9,28.4c0.1-4.3,1.9-8.3,5-11.3c3.1-3,7.2-4.6,11.6-4.5c4.3,0.1,8.3,1.9,11.3,5c3,3.1,4.6,7.2,4.5,11.6
			c-0.1,4.3-1.9,8.3-5,11.3c-3.1,3-7.2,4.6-11.6,4.5c-4.3-0.1-8.3-1.9-11.3-5C488.4,36.9,486.8,32.7,486.9,28.4 M486.7,28.4
			c-0.2,9,7,16.5,16,16.7c9,0.2,16.5-6.9,16.7-16s-7-16.5-16-16.7S486.9,19.4,486.7,28.4L486.7,28.4z"/>
	</g>
	<g>
		<ellipse class="st0" cx="470.6" cy="28.3" rx="16.2" ry="16.2"/>
		<path class="st0" d="M454.4,28c0.1-4.3,1.9-8.3,5-11.3c3.1-3,7.2-4.6,11.6-4.5c4.3,0.1,8.3,1.9,11.3,5c3,3.1,4.6,7.2,4.5,11.6
			c-0.1,4.3-1.9,8.3-5,11.3c-3.1,3-7.2,4.6-11.6,4.5c-4.3-0.1-8.3-1.9-11.3-5C455.9,36.4,454.3,32.3,454.4,28 M454.2,28
			c-0.2,9,7,16.5,16,16.7c9,0.2,16.5-6.9,16.7-16s-7-16.5-16-16.7C461.9,11.8,454.4,18.9,454.2,28L454.2,28z"/>
	</g>
</g>
<g id="Layer_3_00000183245582898429875840000005586042658714171008_">
	<g>
		<circle class="st0" cx="534.7" cy="61" r="16.2"/>
		<path class="st0" d="M518.5,60.6c0.1-4.3,1.9-8.3,5-11.3c3.1-3,7.2-4.6,11.6-4.5c4.3,0.1,8.3,1.9,11.3,5c3,3.1,4.6,7.2,4.5,11.6
			c-0.1,4.3-1.9,8.3-5,11.3c-3.1,3-7.2,4.6-11.6,4.5c-4.3-0.1-8.3-1.9-11.3-5C520,69.1,518.4,65,518.5,60.6 M518.4,60.6
			c-0.2,9,7,16.5,16,16.7c9,0.2,16.5-7,16.7-16c0.2-9-6.9-16.5-16-16.7C526,44.5,518.6,51.6,518.4,60.6L518.4,60.6z"/>
	</g>
	<g>
		<circle class="st0" cx="567.4" cy="61.7" r="16.2"/>
		<path class="st0" d="M551.2,61.3c0.1-4.3,1.9-8.3,5-11.3c3.1-3,7.2-4.6,11.6-4.5c4.3,0.1,8.3,1.9,11.3,5c3,3.1,4.6,7.2,4.5,11.6
			s-1.9,8.3-5,11.3c-3.1,3-7.2,4.6-11.6,4.5c-4.3-0.1-8.3-1.9-11.3-5C552.7,69.7,551.1,65.6,551.2,61.3 M551,61.3
			c-0.2,9,7,16.5,16,16.7s16.5-7,16.7-16c0.2-9-7-16.5-16-16.7C558.7,45.2,551.2,52.3,551,61.3L551,61.3z"/>
	</g>
	<g>
		<ellipse class="st0" cx="568" cy="29" rx="16.2" ry="16.2"/>
		<path class="st0" d="M551.9,28.7c0.1-4.3,1.9-8.3,5-11.3s7.2-4.6,11.6-4.5c4.3,0.1,8.3,1.9,11.3,5c3,3.1,4.6,7.2,4.5,11.6
			c-0.1,4.3-1.9,8.3-5,11.3c-3.1,3-7.2,4.6-11.6,4.5c-4.3-0.1-8.3-1.9-11.3-5C553.4,37.1,551.8,33,551.9,28.7 M551.7,28.7
			c-0.2,9,7,16.5,16,16.7c9,0.2,16.5-6.9,16.7-16c0.2-9-7-16.5-16-16.7C559.4,12.5,551.9,19.7,551.7,28.7L551.7,28.7z"/>
	</g>
	<g>
		<ellipse class="st0" cx="535.5" cy="28.6" rx="16.2" ry="16.2"/>
		<path class="st0" d="M519.3,28.2c0.1-4.3,1.9-8.3,5-11.3c3.1-3,7.2-4.6,11.6-4.5c4.3,0.1,8.3,1.9,11.3,5c3,3.1,4.6,7.2,4.5,11.6
			c-0.1,4.3-1.9,8.3-5,11.3c-3.1,3-7.2,4.6-11.6,4.5c-4.3-0.1-8.3-1.9-11.3-5C520.9,36.7,519.3,32.6,519.3,28.2 M519.2,28.2
			c-0.2,9,7,16.5,16,16.7c9,0.2,16.5-6.9,16.7-16c0.2-9-7-16.5-16-16.7C526.9,12.1,519.4,19.2,519.2,28.2L519.2,28.2z"/>
	</g>
</g>
<g id="Layer_3_00000175312206551497337810000003125293608470629308_">
	<g>
		<circle class="st0" cx="598.3" cy="61" r="16.2"/>
		<path class="st0" d="M582.1,60.6c0.1-4.3,1.9-8.3,5-11.3c3.1-3,7.2-4.6,11.6-4.5c4.3,0.1,8.3,1.9,11.3,5c3,3.1,4.6,7.2,4.5,11.6
			c-0.1,4.3-1.9,8.3-5,11.3c-3.1,3-7.2,4.6-11.6,4.5c-4.3-0.1-8.3-1.9-11.3-5C583.6,69.1,582,64.9,582.1,60.6 M582,60.6
			c-0.2,9,7,16.5,16,16.7c9,0.2,16.5-7,16.7-16c0.2-9-6.9-16.5-16-16.7C589.6,44.4,582.2,51.6,582,60.6L582,60.6z"/>
	</g>
	<g>
		<circle class="st0" cx="631" cy="61.7" r="16.2"/>
		<path class="st0" d="M614.8,61.3c0.1-4.3,1.9-8.3,5-11.3c3.1-3,7.2-4.6,11.6-4.5c4.3,0.1,8.3,1.9,11.3,5c3,3.1,4.6,7.2,4.5,11.6
			c-0.1,4.3-1.9,8.3-5,11.3c-3.1,3-7.2,4.6-11.6,4.5c-4.3-0.1-8.3-1.9-11.3-5C616.3,69.7,614.7,65.6,614.8,61.3 M614.6,61.3
			c-0.2,9,7,16.5,16,16.7s16.5-7,16.7-16c0.2-9-7-16.5-16-16.7C622.3,45.2,614.8,52.3,614.6,61.3L614.6,61.3z"/>
	</g>
	<g>
		<ellipse class="st0" cx="631.6" cy="29" rx="16.2" ry="16.2"/>
		<path class="st0" d="M615.5,28.7c0.1-4.3,1.9-8.3,5-11.3s7.2-4.6,11.6-4.5c4.3,0.1,8.3,1.9,11.3,5c3,3.1,4.6,7.2,4.5,11.6
			c-0.1,4.3-1.9,8.3-5,11.3c-3.1,3-7.2,4.6-11.6,4.5s-8.3-1.9-11.3-5C617,37.1,615.4,33,615.5,28.7 M615.3,28.7
			c-0.2,9,7,16.5,16,16.7c9,0.2,16.5-6.9,16.7-16c0.2-9-7-16.5-16-16.7S615.5,19.7,615.3,28.7L615.3,28.7z"/>
	</g>
	<g>
		<ellipse class="st0" cx="599.1" cy="28.6" rx="16.2" ry="16.2"/>
		<path class="st0" d="M582.9,28.2c0.1-4.3,1.9-8.3,5-11.3c3.1-3,7.2-4.6,11.6-4.5c4.3,0.1,8.3,1.9,11.3,5c3,3.1,4.6,7.2,4.5,11.6
			c-0.1,4.3-1.9,8.3-5,11.3c-3.1,3-7.2,4.6-11.6,4.5s-8.3-1.9-11.3-5C584.5,36.6,582.9,32.5,582.9,28.2 M582.8,28.2
			c-0.2,9,7,16.5,16,16.7c9,0.2,16.5-6.9,16.7-16c0.2-9-7-16.5-16-16.7C590.5,12.1,583,19.2,582.8,28.2L582.8,28.2z"/>
	</g>
</g>
<g id="Layer_3_00000054955721101263954480000011867884656617215896_">
	<g>
		<circle class="st0" cx="663.1" cy="61.4" r="16.2"/>
		<path class="st0" d="M647,61c0.1-4.3,1.9-8.3,5-11.3c3.1-3,7.2-4.6,11.6-4.5c4.3,0.1,8.3,1.9,11.3,5c3,3.1,4.6,7.2,4.5,11.6
			s-1.9,8.3-5,11.3c-3.1,3-7.2,4.6-11.6,4.5c-4.3-0.1-8.3-1.9-11.3-5C648.5,69.5,646.9,65.3,647,61 M646.8,61c-0.2,9,7,16.5,16,16.7
			c9,0.2,16.5-7,16.7-16s-6.9-16.5-16-16.7C654.4,44.8,647,52,646.8,61L646.8,61z"/>
	</g>
	<g>
		<circle class="st0" cx="695.8" cy="62.1" r="16.2"/>
		<path class="st0" d="M679.6,61.7c0.1-4.3,1.9-8.3,5-11.3c3.1-3,7.2-4.6,11.6-4.5c4.3,0.1,8.3,1.9,11.3,5c3,3.1,4.6,7.2,4.5,11.6
			c-0.1,4.3-1.9,8.3-5,11.3c-3.1,3-7.2,4.6-11.6,4.5c-4.3-0.1-8.3-1.9-11.3-5C681.1,70.1,679.5,66,679.6,61.7 M679.4,61.7
			c-0.2,9,7,16.5,16,16.7s16.5-7,16.7-16c0.2-9-7-16.5-16-16.7C687.1,45.6,679.6,52.7,679.4,61.7L679.4,61.7z"/>
	</g>
	<g>
		<ellipse class="st0" cx="696.5" cy="29.4" rx="16.2" ry="16.2"/>
		<path class="st0" d="M680.3,29.1c0.1-4.3,1.9-8.3,5-11.3s7.2-4.6,11.6-4.5c4.3,0.1,8.3,1.9,11.3,5c3,3.1,4.6,7.2,4.5,11.6
			c-0.1,4.3-1.9,8.3-5,11.3c-3.1,3-7.2,4.6-11.6,4.5s-8.3-1.9-11.3-5C681.8,37.5,680.2,33.4,680.3,29.1 M680.1,29.1
			c-0.2,9,7,16.5,16,16.7c9,0.2,16.5-6.9,16.7-16c0.2-9-7-16.5-16-16.7S680.4,20.1,680.1,29.1L680.1,29.1z"/>
	</g>
	<g>
		<ellipse class="st0" cx="664" cy="29" rx="16.2" ry="16.2"/>
		<path class="st0" d="M647.8,28.6c0.1-4.3,1.9-8.3,5-11.3c3.1-3,7.2-4.6,11.6-4.5c4.3,0.1,8.3,1.9,11.3,5c3,3.1,4.6,7.2,4.5,11.6
			c-0.1,4.3-1.9,8.3-5,11.3c-3.1,3-7.2,4.6-11.6,4.5c-4.3-0.1-8.3-1.9-11.3-5C649.3,37,647.7,32.9,647.8,28.6 M647.6,28.6
			c-0.2,9,7,16.5,16,16.7c9,0.2,16.5-6.9,16.7-16s-7-16.5-16-16.7C655.3,12.5,647.8,19.6,647.6,28.6L647.6,28.6z"/>
	</g>
</g>
<g id="Layer_3_00000180351287927919865200000005475823601016305829_">
	<g>
		<circle class="st0" cx="728.1" cy="61.7" r="16.2"/>
		<path class="st0" d="M711.9,61.3c0.1-4.3,1.9-8.3,5-11.3c3.1-3,7.2-4.6,11.6-4.5c4.3,0.1,8.3,1.9,11.3,5c3,3.1,4.6,7.2,4.5,11.6
			s-1.9,8.3-5,11.3s-7.2,4.6-11.6,4.5c-4.3-0.1-8.3-1.9-11.3-5C713.4,69.7,711.8,65.6,711.9,61.3 M711.8,61.3c-0.2,9,7,16.5,16,16.7
			c9,0.2,16.5-7,16.7-16c0.2-9-6.9-16.5-16-16.7C719.4,45.1,712,52.3,711.8,61.3L711.8,61.3z"/>
	</g>
	<g>
		<circle class="st0" cx="760.8" cy="62.3" r="16.2"/>
		<path class="st0" d="M744.6,62c0.1-4.3,1.9-8.3,5-11.3c3.1-3,7.2-4.6,11.6-4.5c4.3,0.1,8.3,1.9,11.3,5c3,3.1,4.6,7.2,4.5,11.6
			c-0.1,4.3-1.9,8.3-5,11.3c-3.1,3-7.2,4.6-11.6,4.5c-4.3-0.1-8.3-1.9-11.3-5C746.1,70.4,744.5,66.3,744.6,62 M744.4,62
			c-0.2,9,7,16.5,16,16.7c9,0.2,16.5-7,16.7-16c0.2-9-7-16.5-16-16.7C752.1,45.8,744.6,53,744.4,62L744.4,62z"/>
	</g>
	<g>
		<ellipse class="st0" cx="761.5" cy="29.7" rx="16.2" ry="16.2"/>
		<path class="st0" d="M745.3,29.4c0.1-4.3,1.9-8.3,5-11.3c3.1-3,7.2-4.6,11.6-4.5c4.3,0.1,8.3,1.9,11.3,5s4.6,7.2,4.5,11.6
			c-0.1,4.3-1.9,8.3-5,11.3c-3.1,3-7.2,4.6-11.6,4.5c-4.3-0.1-8.3-1.9-11.3-5C746.8,37.8,745.2,33.7,745.3,29.4 M745.1,29.3
			c-0.2,9,7,16.5,16,16.7c9,0.2,16.5-6.9,16.7-16c0.2-9-7-16.5-16-16.7C752.8,13.2,745.3,20.3,745.1,29.3L745.1,29.3z"/>
	</g>
	<g>
		<ellipse class="st0" cx="729" cy="29.2" rx="16.2" ry="16.2"/>
		<path class="st0" d="M712.8,28.9c0.1-4.3,1.9-8.3,5-11.3c3.1-3,7.2-4.6,11.6-4.5c4.3,0.1,8.3,1.9,11.3,5c3,3.1,4.6,7.2,4.5,11.6
			c-0.1,4.3-1.9,8.3-5,11.3c-3.1,3-7.2,4.6-11.6,4.5s-8.3-1.9-11.3-5C714.3,37.3,712.7,33.2,712.8,28.9 M712.6,28.9
			c-0.2,9,7,16.5,16,16.7c9,0.2,16.5-6.9,16.7-16c0.2-9-7-16.5-16-16.7C720.3,12.7,712.8,19.9,712.6,28.9L712.6,28.9z"/>
	</g>
</g>
<g id="Layer_3_00000120523380614420540150000017035691620145139591_">
	<g>
		<circle class="st0" cx="792.5" cy="61.2" r="16.2"/>
		<path class="st0" d="M776.3,60.9c0.1-4.3,1.9-8.3,5-11.3c3.1-3,7.2-4.6,11.6-4.5c4.3,0.1,8.3,1.9,11.3,5c3,3.1,4.6,7.2,4.5,11.6
			c-0.1,4.3-1.9,8.3-5,11.3c-3.1,3-7.2,4.6-11.6,4.5c-4.3-0.1-8.3-1.9-11.3-5C777.8,69.3,776.2,65.2,776.3,60.9 M776.2,60.9
			c-0.2,9,7,16.5,16,16.7c9,0.2,16.5-7,16.7-16c0.2-9-6.9-16.5-16-16.7S776.4,51.8,776.2,60.9L776.2,60.9z"/>
	</g>
	<g>
		<circle class="st0" cx="825.1" cy="61.9" r="16.2"/>
		<path class="st0" d="M808.9,61.5c0.1-4.3,1.9-8.3,5-11.3c3.1-3,7.2-4.6,11.6-4.5c4.3,0.1,8.3,1.9,11.3,5c3,3.1,4.6,7.2,4.5,11.6
			s-1.9,8.3-5,11.3c-3.1,3-7.2,4.6-11.6,4.5c-4.3-0.1-8.3-1.9-11.3-5C810.4,69.9,808.8,65.9,808.9,61.5 M808.8,61.5
			c-0.2,9,7,16.5,16,16.7c9,0.2,16.5-7,16.7-16s-7-16.5-16-16.7C816.5,45.4,809,52.5,808.8,61.5L808.8,61.5z"/>
	</g>
	<g>
		<ellipse class="st0" cx="825.8" cy="29.2" rx="16.2" ry="16.2"/>
		<path class="st0" d="M809.6,28.9c0.1-4.3,1.9-8.3,5-11.3c3.1-3,7.2-4.6,11.6-4.5c4.3,0.1,8.3,1.9,11.3,5c3,3.1,4.6,7.2,4.5,11.6
			c-0.1,4.3-1.9,8.3-5,11.3c-3.1,3-7.2,4.6-11.6,4.5c-4.3-0.1-8.3-1.9-11.3-5C811.2,37.3,809.5,33.2,809.6,28.9 M809.5,28.9
			c-0.2,9,7,16.5,16,16.7c9,0.2,16.5-6.9,16.7-16s-7-16.5-16-16.7C817.2,12.7,809.7,19.9,809.5,28.9L809.5,28.9z"/>
	</g>
	<g>
		<ellipse class="st0" cx="793.3" cy="28.8" rx="16.2" ry="16.2"/>
		<path class="st0" d="M777.1,28.4c0.1-4.3,1.9-8.3,5-11.3c3.1-3,7.2-4.6,11.6-4.5c4.3,0.1,8.3,1.9,11.3,5c3,3.1,4.6,7.2,4.5,11.6
			c-0.1,4.3-1.9,8.3-5,11.3c-3.1,3-7.2,4.6-11.6,4.5s-8.3-1.9-11.3-5C778.6,36.9,777,32.8,777.1,28.4 M777,28.4
			c-0.2,9,7,16.5,16,16.7c9,0.2,16.5-6.9,16.7-16c0.2-9-7-16.5-16-16.7C784.7,12.3,777.2,19.4,777,28.4L777,28.4z"/>
	</g>
</g>
<g id="Layer_3_00000151503700705402006310000001298114291643405984_">
	<g>
		<circle class="st0" cx="857.3" cy="60.9" r="16.2"/>
		<path class="st0" d="M841.1,60.5c0.1-4.3,1.9-8.3,5-11.3c3.1-3,7.2-4.6,11.6-4.5s8.3,1.9,11.3,5c3,3.1,4.6,7.2,4.5,11.6
			c-0.1,4.3-1.9,8.3-5,11.3c-3.1,3-7.2,4.6-11.6,4.5c-4.3-0.1-8.3-1.9-11.3-5C842.6,68.9,841,64.8,841.1,60.5 M841,60.5
			c-0.2,9,7,16.5,16,16.7c9,0.2,16.5-7,16.7-16c0.2-9-6.9-16.5-16-16.7C848.6,44.3,841.2,51.5,841,60.5L841,60.5z"/>
	</g>
	<g>
		<circle class="st0" cx="890" cy="61.6" r="16.2"/>
		<path class="st0" d="M873.8,61.2c0.1-4.3,1.9-8.3,5-11.3c3.1-3,7.2-4.6,11.6-4.5c4.3,0.1,8.3,1.9,11.3,5c3,3.1,4.6,7.2,4.5,11.6
			s-1.9,8.3-5,11.3c-3.1,3-7.2,4.6-11.6,4.5c-4.3-0.1-8.3-1.9-11.3-5C875.3,69.6,873.7,65.5,873.8,61.2 M873.6,61.2
			c-0.2,9,7,16.5,16,16.7s16.5-7,16.7-16c0.2-9-7-16.5-16-16.7C881.3,45.1,873.8,52.2,873.6,61.2L873.6,61.2z"/>
	</g>
	<g>
		<ellipse class="st0" cx="890.6" cy="28.9" rx="16.2" ry="16.2"/>
		<path class="st0" d="M874.5,28.6c0.1-4.3,1.9-8.3,5-11.3s7.2-4.6,11.6-4.5c4.3,0.1,8.3,1.9,11.3,5c3,3.1,4.6,7.2,4.5,11.6
			c-0.1,4.3-1.9,8.3-5,11.3c-3.1,3-7.2,4.6-11.6,4.5s-8.3-1.9-11.3-5C876,37,874.4,32.9,874.5,28.6 M874.3,28.6
			c-0.2,9,7,16.5,16,16.7c9,0.2,16.5-6.9,16.7-16s-7-16.5-16-16.7C882,12.4,874.5,19.5,874.3,28.6L874.3,28.6z"/>
	</g>
	<g>
		<ellipse class="st0" cx="858.2" cy="28.4" rx="16.2" ry="16.2"/>
		<path class="st0" d="M842,28.1c0.1-4.3,1.9-8.3,5-11.3c3.1-3,7.2-4.6,11.6-4.5c4.3,0.1,8.3,1.9,11.3,5c3,3.1,4.6,7.2,4.5,11.6
			c-0.1,4.3-1.9,8.3-5,11.3c-3.1,3-7.2,4.6-11.6,4.5c-4.3-0.1-8.3-1.9-11.3-5C843.5,36.5,841.9,32.4,842,28.1 M841.8,28.1
			c-0.2,9,7,16.5,16,16.7c9,0.2,16.5-6.9,16.7-16c0.2-9-7-16.5-16-16.7C849.5,11.9,842,19.1,841.8,28.1L841.8,28.1z"/>
	</g>
</g>
<g id="Layer_3_00000052063458936093686930000002022181911599675298_">
	<g>
		<circle class="st0" cx="922.3" cy="61.1" r="16.2"/>
		<path class="st0" d="M906.1,60.8c0.1-4.3,1.9-8.3,5-11.3c3.1-3,7.2-4.6,11.6-4.5c4.3,0.1,8.3,1.9,11.3,5c3,3.1,4.6,7.2,4.5,11.6
			c-0.1,4.3-1.9,8.3-5,11.3c-3.1,3-7.2,4.6-11.6,4.5c-4.3-0.1-8.3-1.9-11.3-5C907.6,69.2,906,65.1,906.1,60.8 M906,60.8
			c-0.2,9,7,16.5,16,16.7c9,0.2,16.5-7,16.7-16c0.2-9-6.9-16.5-16-16.7C913.6,44.6,906.2,51.8,906,60.8L906,60.8z"/>
	</g>
	<g>
		<ellipse class="st0" cx="923.1" cy="28.7" rx="16.2" ry="16.2"/>
		<path class="st0" d="M906.9,28.4c0.1-4.3,1.9-8.3,5-11.3c3.1-3,7.2-4.6,11.6-4.5c4.3,0.1,8.3,1.9,11.3,5c3,3.1,4.6,7.2,4.5,11.6
			c-0.1,4.3-1.9,8.3-5,11.3c-3.1,3-7.2,4.6-11.6,4.5c-4.3-0.1-8.3-1.9-11.3-5C908.5,36.8,906.9,32.7,906.9,28.4 M906.8,28.4
			c-0.2,9,7,16.5,16,16.7c9,0.2,16.5-6.9,16.7-16c0.2-9-7-16.5-16-16.7C914.5,12.2,907,19.3,906.8,28.4L906.8,28.4z"/>
	</g>
</g>
<g id="Layer_3_00000102516479504030200430000011132869639739718809_">
	<g>
		<circle class="st0" cx="1329.6" cy="66.6" r="21.9"/>
		<path class="st0" d="M1307.8,66.1c0.1-5.8,2.5-11.2,6.7-15.3c4.2-4,9.7-6.2,15.6-6.1s11.2,2.5,15.3,6.7c4,4.2,6.2,9.7,6.1,15.6
			c-0.1,5.8-2.5,11.2-6.7,15.3s-9.7,6.2-15.6,6.1s-11.2-2.5-15.3-6.7C1309.8,77.5,1307.7,71.9,1307.8,66.1 M1307.6,66.1
			c-0.3,12.1,9.4,22.2,21.5,22.4c12.1,0.3,22.2-9.4,22.4-21.5c0.3-12.2-9.3-22.2-21.5-22.5C1317.9,44.3,1307.9,54,1307.6,66.1
			L1307.6,66.1z"/>
	</g>
	<g>
		<circle class="st0" cx="1373.6" cy="67.5" r="21.9"/>
		<path class="st0" d="M1351.8,67.1c0.1-5.8,2.5-11.2,6.7-15.3c4.2-4,9.7-6.2,15.6-6.1c5.8,0.1,11.2,2.5,15.3,6.7
			c4,4.2,6.2,9.7,6.1,15.6c-0.1,5.8-2.5,11.2-6.7,15.3c-4.2,4-9.7,6.2-15.6,6.1c-5.8-0.1-11.2-2.5-15.3-6.7
			C1353.8,78.4,1351.6,72.9,1351.8,67.1 M1351.6,67c-0.3,12.2,9.4,22.2,21.5,22.5c12.1,0.3,22.2-9.4,22.4-21.5
			c0.3-12.1-9.4-22.2-21.5-22.4C1361.9,45.3,1351.8,54.9,1351.6,67L1351.6,67z"/>
	</g>
	<g>
		<ellipse class="st0" cx="1374.5" cy="23.5" rx="21.9" ry="21.9"/>
		<path class="st0" d="M1352.7,23.1c0.1-5.8,2.5-11.2,6.7-15.3c4.2-4,9.7-6.2,15.6-6.1c5.8,0.1,11.2,2.5,15.3,6.7s6.2,9.7,6.1,15.6
			c-0.1,5.8-2.5,11.2-6.7,15.3c-4.2,4-9.7,6.2-15.6,6.1c-5.8-0.1-11.2-2.5-15.3-6.7C1354.8,34.4,1352.6,28.9,1352.7,23.1
			 M1352.5,23.1c-0.3,12.2,9.4,22.2,21.5,22.4c12.1,0.3,22.2-9.4,22.5-21.5c0.3-12.2-9.4-22.2-21.5-22.4S1352.8,10.9,1352.5,23.1
			L1352.5,23.1z"/>
	</g>
	<g>
		<ellipse class="st0" cx="1330.7" cy="22.9" rx="21.9" ry="21.9"/>
		<path class="st0" d="M1308.9,22.5c0.1-5.8,2.5-11.2,6.7-15.3c4.2-4,9.7-6.2,15.6-6.1c5.8,0.1,11.2,2.5,15.3,6.7
			c4,4.2,6.2,9.7,6.1,15.6c-0.1,5.8-2.5,11.2-6.7,15.3c-4.2,4-9.7,6.2-15.6,6.1c-5.8-0.1-11.2-2.5-15.3-6.7
			C1311,33.8,1308.8,28.3,1308.9,22.5 M1308.7,22.5c-0.3,12.2,9.4,22.2,21.5,22.4c12.1,0.3,22.2-9.4,22.5-21.5
			c0.3-12.2-9.4-22.2-21.5-22.4C1319.1,0.7,1309,10.3,1308.7,22.5L1308.7,22.5z"/>
	</g>
</g>
<g id="Layer_3_00000160869030444002561440000000439771722701266855_">
	<g>
		<circle class="st3" cx="1416.9" cy="66.2" r="21.9"/>
		<path class="st3" d="M1395.1,65.7c0.1-5.8,2.5-11.2,6.7-15.3c4.2-4,9.7-6.2,15.6-6.1s11.2,2.5,15.3,6.7c4,4.2,6.2,9.7,6.1,15.6
			c-0.1,5.8-2.5,11.2-6.7,15.3s-9.7,6.2-15.6,6.1s-11.2-2.5-15.3-6.7C1397.2,77,1395,71.5,1395.1,65.7 M1395,65.7
			c-0.3,12.1,9.4,22.2,21.5,22.4c12.1,0.3,22.2-9.4,22.4-21.5c0.3-12.2-9.4-22.2-21.5-22.5S1395.2,53.5,1395,65.7L1395,65.7z"/>
	</g>
	<g>
		<circle class="st3" cx="1460.9" cy="67.1" r="21.9"/>
		<path class="st3" d="M1439.1,66.6c0.1-5.8,2.5-11.2,6.7-15.3c4.2-4,9.7-6.2,15.6-6.1c5.8,0.1,11.2,2.5,15.3,6.7
			c4,4.2,6.2,9.7,6.1,15.6c-0.1,5.8-2.5,11.2-6.7,15.3c-4.2,4-9.7,6.2-15.6,6.1s-11.2-2.5-15.3-6.7
			C1441.1,77.9,1439,72.4,1439.1,66.6 M1438.9,66.6c-0.3,12.2,9.4,22.2,21.5,22.5c12.1,0.3,22.2-9.4,22.4-21.5s-9.4-22.2-21.5-22.4
			C1449.3,44.9,1439.2,54.5,1438.9,66.6L1438.9,66.6z"/>
	</g>
	<g>
		<ellipse class="st3" cx="1461.8" cy="23.1" rx="21.9" ry="21.9"/>
		<path class="st3" d="M1440,22.7c0.1-5.8,2.5-11.2,6.7-15.3s9.7-6.2,15.6-6.1c5.8,0.1,11.2,2.5,15.3,6.7c4,4.2,6.2,9.7,6.1,15.6
			c-0.1,5.8-2.5,11.2-6.7,15.3c-4.2,4-9.7,6.2-15.6,6.1c-5.8-0.1-11.2-2.5-15.3-6.7C1442.1,34,1439.9,28.4,1440,22.7 M1439.8,22.6
			c-0.3,12.2,9.4,22.2,21.5,22.4c12.1,0.3,22.2-9.4,22.5-21.5c0.3-12.2-9.4-22.2-21.5-22.4S1440.1,10.5,1439.8,22.6L1439.8,22.6z"/>
	</g>
	<g>
		<ellipse class="st3" cx="1418.1" cy="22.5" rx="21.9" ry="21.9"/>
		<path class="st3" d="M1396.2,22c0.1-5.8,2.5-11.2,6.7-15.3c4.2-4,9.7-6.2,15.6-6.1c5.8,0.1,11.2,2.5,15.3,6.7
			c4,4.2,6.2,9.7,6.1,15.6c-0.1,5.8-2.5,11.2-6.7,15.3c-4.2,4-9.7,6.2-15.6,6.1c-5.8-0.1-11.2-2.5-15.3-6.7
			C1398.3,33.4,1396.1,27.8,1396.2,22 M1396.1,22c-0.3,12.2,9.4,22.2,21.5,22.4c12.1,0.3,22.2-9.4,22.5-21.5
			c0.3-12.2-9.4-22.2-21.5-22.4C1406.4,0.2,1396.3,9.9,1396.1,22L1396.1,22z"/>
	</g>
</g>
<g id="Layer_3_00000138573366382715002470000009590387551788182670_">
	<g>
		<circle class="st3" cx="1504.5" cy="66.5" r="21.9"/>
		<path class="st3" d="M1482.7,66c0.1-5.8,2.5-11.2,6.7-15.3c4.2-4,9.7-6.2,15.6-6.1s11.2,2.5,15.3,6.7c4,4.2,6.2,9.7,6.1,15.6
			c-0.1,5.8-2.5,11.2-6.7,15.3s-9.7,6.2-15.6,6.1c-5.8-0.1-11.2-2.5-15.3-6.7C1484.7,77.4,1482.5,71.8,1482.7,66 M1482.5,66
			c-0.3,12.1,9.4,22.2,21.5,22.4c12.1,0.3,22.2-9.4,22.4-21.5c0.3-12.2-9.4-22.2-21.5-22.5C1492.8,44.2,1482.8,53.9,1482.5,66
			L1482.5,66z"/>
	</g>
	<g>
		<circle class="st3" cx="1548.4" cy="67.4" r="21.9"/>
		<path class="st3" d="M1526.6,67c0.1-5.8,2.5-11.2,6.7-15.3c4.2-4,9.7-6.2,15.6-6.1c5.8,0.1,11.2,2.5,15.3,6.7
			c4,4.2,6.2,9.7,6.1,15.6c-0.1,5.8-2.5,11.2-6.7,15.3c-4.2,4-9.7,6.2-15.6,6.1c-5.8-0.1-11.2-2.5-15.3-6.7
			C1528.7,78.3,1526.5,72.8,1526.6,67 M1526.4,66.9c-0.3,12.2,9.4,22.2,21.5,22.5c12.1,0.3,22.2-9.4,22.4-21.5
			c0.3-12.1-9.4-22.2-21.5-22.4C1536.8,45.2,1526.7,54.8,1526.4,66.9L1526.4,66.9z"/>
	</g>
	<g>
		<ellipse class="st3" cx="1549.4" cy="23.4" rx="21.9" ry="21.9"/>
		<path class="st3" d="M1527.6,23c0.1-5.8,2.5-11.2,6.7-15.3s9.7-6.2,15.6-6.1c5.8,0.1,11.2,2.5,15.3,6.7c4,4.2,6.2,9.7,6.1,15.6
			c-0.1,5.8-2.5,11.2-6.7,15.3c-4.2,4-9.7,6.2-15.6,6.1c-5.8-0.1-11.2-2.5-15.3-6.7C1529.6,34.3,1527.4,28.8,1527.6,23 M1527.4,23
			c-0.3,12.2,9.4,22.2,21.5,22.4c12.1,0.3,22.2-9.4,22.5-21.5c0.3-12.2-9.4-22.2-21.5-22.4S1527.6,10.8,1527.4,23L1527.4,23z"/>
	</g>
	<g>
		<ellipse class="st3" cx="1505.6" cy="22.8" rx="21.9" ry="21.9"/>
		<path class="st3" d="M1483.8,22.4c0.1-5.8,2.5-11.2,6.7-15.3c4.2-4,9.7-6.2,15.6-6.1c5.8,0.1,11.2,2.5,15.3,6.7
			c4,4.2,6.2,9.7,6.1,15.6c-0.1,5.8-2.5,11.2-6.7,15.3c-4.2,4-9.7,6.2-15.6,6.1c-5.8-0.1-11.2-2.5-15.3-6.7
			C1485.8,33.7,1483.7,28.2,1483.8,22.4 M1483.6,22.4c-0.3,12.2,9.4,22.2,21.5,22.4s22.2-9.4,22.5-21.5c0.3-12.2-9.4-22.2-21.5-22.4
			C1494,0.6,1483.9,10.2,1483.6,22.4L1483.6,22.4z"/>
	</g>
</g>
<g id="Layer_3_00000093155215402984991790000006671367259126285749_">
	<g>
		<circle class="st0" cx="953.7" cy="60.7" r="16.2"/>
		<path class="st0" d="M937.5,60.4c0.1-4.3,1.9-8.3,5-11.3c3.1-3,7.2-4.6,11.6-4.5c4.3,0.1,8.3,1.9,11.3,5c3,3.1,4.6,7.2,4.5,11.6
			c-0.1,4.3-1.9,8.3-5,11.3c-3.1,3-7.2,4.6-11.6,4.5c-4.3-0.1-8.3-1.9-11.3-5C939,68.8,937.4,64.7,937.5,60.4 M937.4,60.4
			c-0.2,9,7,16.5,16,16.7c9,0.2,16.5-7,16.7-16c0.2-9-6.9-16.5-16-16.7C945,44.2,937.6,51.3,937.4,60.4L937.4,60.4z"/>
	</g>
	<g>
		<circle class="st0" cx="986.4" cy="61.4" r="16.2"/>
		<path class="st0" d="M970.2,61c0.1-4.3,1.9-8.3,5-11.3c3.1-3,7.2-4.6,11.6-4.5c4.3,0.1,8.3,1.9,11.3,5c3,3.1,4.6,7.2,4.5,11.6
			c-0.1,4.3-1.9,8.3-5,11.3c-3.1,3-7.2,4.6-11.6,4.5s-8.3-1.9-11.3-5C971.7,69.4,970.1,65.4,970.2,61 M970,61c-0.2,9,7,16.5,16,16.7
			s16.5-7,16.7-16c0.2-9-7-16.5-16-16.7C977.7,44.9,970.2,52,970,61L970,61z"/>
	</g>
	<g>
		<ellipse class="st0" cx="987" cy="28.7" rx="16.2" ry="16.2"/>
		<path class="st0" d="M970.9,28.4c0.1-4.3,1.9-8.3,5-11.3s7.2-4.6,11.6-4.5c4.3,0.1,8.3,1.9,11.3,5c3,3.1,4.6,7.2,4.5,11.6
			c-0.1,4.3-1.9,8.3-5,11.3c-3.1,3-7.2,4.6-11.6,4.5s-8.3-1.9-11.3-5C972.4,36.8,970.8,32.7,970.9,28.4 M970.7,28.4
			c-0.2,9,7,16.5,16,16.7c9,0.2,16.5-6.9,16.7-16c0.2-9-7-16.5-16-16.7C978.4,12.2,970.9,19.4,970.7,28.4L970.7,28.4z"/>
	</g>
	<g>
		<ellipse class="st0" cx="954.6" cy="28.3" rx="16.2" ry="16.2"/>
		<path class="st0" d="M938.4,27.9c0.1-4.3,1.9-8.3,5-11.3c3.1-3,7.2-4.6,11.6-4.5c4.3,0.1,8.3,1.9,11.3,5c3,3.1,4.6,7.2,4.5,11.6
			c-0.1,4.3-1.9,8.3-5,11.3c-3.1,3-7.2,4.6-11.6,4.5c-4.3-0.1-8.3-1.9-11.3-5C939.9,36.4,938.3,32.3,938.4,27.9 M938.2,27.9
			c-0.2,9,7,16.5,16,16.7c9,0.2,16.5-6.9,16.7-16c0.2-9-7-16.5-16-16.7C945.9,11.8,938.4,18.9,938.2,27.9L938.2,27.9z"/>
	</g>
</g>
<g id="Layer_3_00000088132830000096423900000014564388709608933761_">
	<g>
		<circle class="st0" cx="1018.5" cy="61.1" r="16.2"/>
		<path class="st0" d="M1002.4,60.8c0.1-4.3,1.9-8.3,5-11.3c3.1-3,7.2-4.6,11.6-4.5c4.3,0.1,8.3,1.9,11.3,5c3,3.1,4.6,7.2,4.5,11.6
			s-1.9,8.3-5,11.3s-7.2,4.6-11.6,4.5c-4.3-0.1-8.3-1.9-11.3-5C1003.9,69.2,1002.3,65.1,1002.4,60.8 M1002.2,60.8
			c-0.2,9,7,16.5,16,16.7c9,0.2,16.5-7,16.7-16c0.2-9-6.9-16.5-16-16.7C1009.9,44.6,1002.4,51.7,1002.2,60.8L1002.2,60.8z"/>
	</g>
	<g>
		<circle class="st0" cx="1051.2" cy="61.8" r="16.2"/>
		<path class="st0" d="M1035,61.5c0.1-4.3,1.9-8.3,5-11.3c3.1-3,7.2-4.6,11.6-4.5c4.3,0.1,8.3,1.9,11.3,5c3,3.1,4.6,7.2,4.5,11.6
			c-0.1,4.3-1.9,8.3-5,11.3c-3.1,3-7.2,4.6-11.6,4.5c-4.3-0.1-8.3-1.9-11.3-5C1036.5,69.9,1034.9,65.8,1035,61.5 M1034.9,61.4
			c-0.2,9,7,16.5,16,16.7c9,0.2,16.5-7,16.7-16c0.2-9-7-16.5-16-16.7C1042.5,45.3,1035.1,52.4,1034.9,61.4L1034.9,61.4z"/>
	</g>
	<g>
		<ellipse class="st0" cx="1051.9" cy="29.1" rx="16.2" ry="16.2"/>
		<path class="st0" d="M1035.7,28.8c0.1-4.3,1.9-8.3,5-11.3c3.1-3,7.2-4.6,11.6-4.5c4.3,0.1,8.3,1.9,11.3,5c3,3.1,4.6,7.2,4.5,11.6
			c-0.1,4.3-1.9,8.3-5,11.3c-3.1,3-7.2,4.6-11.6,4.5c-4.3-0.1-8.3-1.9-11.3-5C1037.2,37.2,1035.6,33.1,1035.7,28.8 M1035.6,28.8
			c-0.2,9,7,16.5,16,16.7c9,0.2,16.5-6.9,16.7-16c0.2-9-7-16.5-16-16.7S1035.8,19.8,1035.6,28.8L1035.6,28.8z"/>
	</g>
	<g>
		<ellipse class="st0" cx="1019.4" cy="28.7" rx="16.2" ry="16.2"/>
		<path class="st0" d="M1003.2,28.3c0.1-4.3,1.9-8.3,5-11.3c3.1-3,7.2-4.6,11.6-4.5c4.3,0.1,8.3,1.9,11.3,5c3,3.1,4.6,7.2,4.5,11.6
			c-0.1,4.3-1.9,8.3-5,11.3c-3.1,3-7.2,4.6-11.6,4.5s-8.3-1.9-11.3-5C1004.7,36.8,1003.1,32.7,1003.2,28.3 M1003.1,28.3
			c-0.2,9,7,16.5,16,16.7c9,0.2,16.5-6.9,16.7-16c0.2-9-7-16.5-16-16.7C1010.7,12.2,1003.3,19.3,1003.1,28.3L1003.1,28.3z"/>
	</g>
</g>
<g id="Layer_3_00000064325168924499070420000002579574142976786826_">
	<g>
		<circle class="st0" cx="1083.5" cy="61.4" r="16.2"/>
		<path class="st0" d="M1067.3,61c0.1-4.3,1.9-8.3,5-11.3c3.1-3,7.2-4.6,11.6-4.5c4.3,0.1,8.3,1.9,11.3,5c3,3.1,4.6,7.2,4.5,11.6
			s-1.9,8.3-5,11.3s-7.2,4.6-11.6,4.5c-4.3-0.1-8.3-1.9-11.3-5C1068.9,69.5,1067.3,65.3,1067.3,61 M1067.2,61c-0.2,9,7,16.5,16,16.7
			c9,0.2,16.5-7,16.7-16c0.2-9-6.9-16.5-16-16.7C1074.8,44.8,1067.4,52,1067.2,61L1067.2,61z"/>
	</g>
	<g>
		<circle class="st0" cx="1116.2" cy="62.1" r="16.2"/>
		<path class="st0" d="M1100,61.7c0.1-4.3,1.9-8.3,5-11.3c3.1-3,7.2-4.6,11.6-4.5c4.3,0.1,8.3,1.9,11.3,5c3,3.1,4.6,7.2,4.5,11.6
			c-0.1,4.3-1.9,8.3-5,11.3c-3.1,3-7.2,4.6-11.6,4.5c-4.3-0.1-8.3-1.9-11.3-5C1101.5,70.1,1099.9,66,1100,61.7 M1099.8,61.7
			c-0.2,9,7,16.5,16,16.7s16.5-7,16.7-16s-7-16.5-16-16.7C1107.5,45.6,1100,52.7,1099.8,61.7L1099.8,61.7z"/>
	</g>
	<g>
		<ellipse class="st0" cx="1116.9" cy="29.4" rx="16.2" ry="16.2"/>
		<path class="st0" d="M1100.7,29.1c0.1-4.3,1.9-8.3,5-11.3s7.2-4.6,11.6-4.5c4.3,0.1,8.3,1.9,11.3,5c3,3.1,4.6,7.2,4.5,11.6
			c-0.1,4.3-1.9,8.3-5,11.3c-3.1,3-7.2,4.6-11.6,4.5c-4.3-0.1-8.3-1.9-11.3-5C1102.2,37.5,1100.6,33.4,1100.7,29.1 M1100.5,29.1
			c-0.2,9,7,16.5,16,16.7c9,0.2,16.5-6.9,16.7-16s-7-16.5-16-16.7S1100.7,20.1,1100.5,29.1L1100.5,29.1z"/>
	</g>
	<g>
		<ellipse class="st0" cx="1084.4" cy="29" rx="16.2" ry="16.2"/>
		<path class="st0" d="M1068.2,28.6c0.1-4.3,1.9-8.3,5-11.3c3.1-3,7.2-4.6,11.6-4.5c4.3,0.1,8.3,1.9,11.3,5c3,3.1,4.6,7.2,4.5,11.6
			c-0.1,4.3-1.9,8.3-5,11.3c-3.1,3-7.2,4.6-11.6,4.5s-8.3-1.9-11.3-5C1069.7,37,1068.1,32.9,1068.2,28.6 M1068,28.6
			c-0.2,9,7,16.5,16,16.7c9,0.2,16.5-6.9,16.7-16c0.2-9-7-16.5-16-16.7C1075.7,12.4,1068.2,19.6,1068,28.6L1068,28.6z"/>
	</g>
</g>
<g id="Layer_3_00000165925537943556634630000017160950711029904771_">
	<g>
		<circle class="st0" cx="1147.9" cy="60.9" r="16.2"/>
		<path class="st0" d="M1131.7,60.6c0.1-4.3,1.9-8.3,5-11.3c3.1-3,7.2-4.6,11.6-4.5s8.3,1.9,11.3,5c3,3.1,4.6,7.2,4.5,11.6
			c-0.1,4.3-1.9,8.3-5,11.3s-7.2,4.6-11.6,4.5c-4.3-0.1-8.3-1.9-11.3-5C1133.2,69,1131.6,64.9,1131.7,60.6 M1131.6,60.6
			c-0.2,9,7,16.5,16,16.7c9,0.2,16.5-7,16.7-16c0.2-9-6.9-16.5-16-16.7C1139.2,44.4,1131.8,51.6,1131.6,60.6L1131.6,60.6z"/>
	</g>
	<g>
		<circle class="st0" cx="1180.5" cy="61.6" r="16.2"/>
		<path class="st0" d="M1164.3,61.3c0.1-4.3,1.9-8.3,5-11.3c3.1-3,7.2-4.6,11.6-4.5c4.3,0.1,8.3,1.9,11.3,5c3,3.1,4.6,7.2,4.5,11.6
			c-0.1,4.3-1.9,8.3-5,11.3c-3.1,3-7.2,4.6-11.6,4.5c-4.3-0.1-8.3-1.9-11.3-5C1165.9,69.7,1164.3,65.6,1164.3,61.3 M1164.2,61.3
			c-0.2,9,7,16.5,16,16.7s16.5-7,16.7-16s-7-16.5-16-16.7C1171.9,45.1,1164.4,52.3,1164.2,61.3L1164.2,61.3z"/>
	</g>
	<g>
		<ellipse class="st0" cx="1181.2" cy="29" rx="16.2" ry="16.2"/>
		<path class="st0" d="M1165,28.6c0.1-4.3,1.9-8.3,5-11.3s7.2-4.6,11.6-4.5c4.3,0.1,8.3,1.9,11.3,5c3,3.1,4.6,7.2,4.5,11.6
			c-0.1,4.3-1.9,8.3-5,11.3c-3.1,3-7.2,4.6-11.6,4.5c-4.3-0.1-8.3-1.9-11.3-5C1166.6,37.1,1164.9,32.9,1165,28.6 M1164.9,28.6
			c-0.2,9,7,16.5,16,16.7c9,0.2,16.5-6.9,16.7-16s-7-16.5-16-16.7C1172.6,12.5,1165.1,19.6,1164.9,28.6L1164.9,28.6z"/>
	</g>
	<g>
		<ellipse class="st0" cx="1148.7" cy="28.5" rx="16.2" ry="16.2"/>
		<path class="st0" d="M1132.5,28.2c0.1-4.3,1.9-8.3,5-11.3c3.1-3,7.2-4.6,11.6-4.5c4.3,0.1,8.3,1.9,11.3,5c3,3.1,4.6,7.2,4.5,11.6
			c-0.1,4.3-1.9,8.3-5,11.3c-3.1,3-7.2,4.6-11.6,4.5c-4.3-0.1-8.3-1.9-11.3-5C1134.1,36.6,1132.5,32.5,1132.5,28.2 M1132.4,28.2
			c-0.2,9,7,16.5,16,16.7c9,0.2,16.5-6.9,16.7-16c0.2-9-7-16.5-16-16.7C1140.1,12,1132.6,19.1,1132.4,28.2L1132.4,28.2z"/>
	</g>
</g>
<g id="Layer_3_00000083086856147409736270000009999476961587796644_">
	<g>
		<circle class="st0" cx="1212.9" cy="60.7" r="16.2"/>
		<path class="st0" d="M1196.7,60.5c0-4.3,1.8-8.4,4.9-11.4c3.1-3,7.2-4.7,11.5-4.6s8.4,1.8,11.4,4.9c3,3.1,4.7,7.2,4.6,11.5
			c-0.1,4.3-1.8,8.3-4.9,11.4c-3.1,3-7.2,4.7-11.5,4.6s-8.4-1.8-11.4-4.9C1198.3,68.9,1196.6,64.8,1196.7,60.5 M1196.5,60.5
			c-0.1,9,7.1,16.4,16.1,16.5c9,0.1,16.4-7.1,16.5-16.1s-7.1-16.4-16.1-16.5S1196.7,51.5,1196.5,60.5L1196.5,60.5z"/>
	</g>
	<g>
		<circle class="st0" cx="1245.5" cy="61.1" r="16.2"/>
		<path class="st0" d="M1229.3,60.9c0-4.3,1.8-8.4,4.9-11.4c3.1-3,7.2-4.7,11.5-4.6c4.3,0,8.4,1.8,11.4,4.9c3,3.1,4.7,7.2,4.6,11.5
			c-0.1,4.3-1.8,8.4-4.9,11.4c-3.1,3-7.2,4.7-11.5,4.6s-8.4-1.8-11.4-4.9C1230.9,69.3,1229.3,65.2,1229.3,60.9 M1229.2,60.9
			c-0.1,9,7.1,16.4,16.1,16.5s16.4-7.1,16.5-16.1s-7.1-16.4-16.1-16.5C1236.7,44.7,1229.3,51.9,1229.2,60.9L1229.2,60.9z"/>
	</g>
	<g>
		<ellipse class="st0" cx="1245.9" cy="28.5" rx="16.2" ry="16.2"/>
		<path class="st0" d="M1229.7,28.3c0-4.3,1.8-8.4,4.9-11.4c3.1-3,7.2-4.7,11.5-4.6c4.3,0,8.4,1.8,11.4,4.9s4.7,7.2,4.6,11.5
			c0,4.3-1.8,8.4-4.9,11.4c-3.1,3-7.2,4.7-11.5,4.6s-8.4-1.8-11.4-4.9C1231.3,36.7,1229.7,32.6,1229.7,28.3 M1229.6,28.3
			c-0.1,9,7.1,16.4,16.1,16.5c9,0.1,16.4-7.1,16.5-16.1s-7.1-16.4-16.1-16.5S1229.7,19.3,1229.6,28.3L1229.6,28.3z"/>
	</g>
	<g>
		<ellipse class="st0" cx="1213.4" cy="28.3" rx="16.2" ry="16.2"/>
		<path class="st0" d="M1197.2,28.1c0-4.3,1.8-8.4,4.9-11.4c3.1-3,7.2-4.7,11.5-4.6c4.3,0,8.4,1.8,11.4,4.9c3,3.1,4.7,7.2,4.6,11.5
			c0,4.3-1.8,8.4-4.9,11.4c-3.1,3-7.2,4.7-11.5,4.6s-8.4-1.8-11.4-4.9C1198.8,36.5,1197.2,32.4,1197.2,28.1 M1197.1,28.1
			c-0.1,9,7.1,16.4,16.1,16.5c9,0.1,16.4-7.1,16.5-16.1s-7.1-16.4-16.1-16.5C1204.6,11.9,1197.2,19.1,1197.1,28.1L1197.1,28.1z"/>
	</g>
</g>
<g id="Layer_3_00000152231725289219195960000009518641330938473873_">
	<g>
		<circle class="st0" cx="1342.5" cy="60.6" r="16.2"/>
		<path class="st0" d="M1326.3,60.2c0.1-4.3,1.9-8.3,5-11.3c3.1-3,7.2-4.6,11.6-4.5c4.3,0.1,8.3,1.9,11.3,5c3,3.1,4.6,7.2,4.5,11.6
			c-0.1,4.3-1.9,8.3-5,11.3c-3.1,3-7.2,4.6-11.6,4.5c-4.3-0.1-8.3-1.9-11.3-5C1327.8,68.7,1326.2,64.5,1326.3,60.2 M1326.2,60.2
			c-0.2,9,7,16.5,16,16.7c9,0.2,16.5-7,16.7-16s-6.9-16.5-16-16.7S1326.4,51.2,1326.2,60.2L1326.2,60.2z"/>
	</g>
	<g>
		<circle class="st0" cx="1375.2" cy="61.3" r="16.2"/>
		<path class="st0" d="M1359,60.9c0.1-4.3,1.9-8.3,5-11.3c3.1-3,7.2-4.6,11.6-4.5c4.3,0.1,8.3,1.9,11.3,5c3,3.1,4.6,7.2,4.5,11.6
			s-1.9,8.3-5,11.3c-3.1,3-7.2,4.6-11.6,4.5c-4.3-0.1-8.3-1.9-11.3-5C1360.5,69.3,1358.9,65.2,1359,60.9 M1358.8,60.9
			c-0.2,9,7,16.5,16,16.7s16.5-7,16.7-16c0.2-9-7-16.5-16-16.7C1366.5,44.8,1359,51.9,1358.8,60.9L1358.8,60.9z"/>
	</g>
	<g>
		<ellipse class="st0" cx="1375.8" cy="28.6" rx="16.2" ry="16.2"/>
		<path class="st0" d="M1359.6,28.3c0.1-4.3,1.9-8.3,5-11.3s7.2-4.6,11.6-4.5c4.3,0.1,8.3,1.9,11.3,5s4.6,7.2,4.5,11.6
			c-0.1,4.3-1.9,8.3-5,11.3c-3.1,3-7.2,4.6-11.6,4.5c-4.3-0.1-8.3-1.9-11.3-5C1361.2,36.7,1359.6,32.6,1359.6,28.3 M1359.5,28.3
			c-0.2,9,7,16.5,16,16.7c9,0.2,16.5-6.9,16.7-16c0.2-9-7-16.5-16-16.7C1367.2,12.1,1359.7,19.3,1359.5,28.3L1359.5,28.3z"/>
	</g>
	<g>
		<ellipse class="st0" cx="1343.3" cy="28.2" rx="16.2" ry="16.2"/>
		<path class="st0" d="M1327.1,27.8c0.1-4.3,1.9-8.3,5-11.3c3.1-3,7.2-4.6,11.6-4.5c4.3,0.1,8.3,1.9,11.3,5c3,3.1,4.6,7.2,4.5,11.6
			c-0.1,4.3-1.9,8.3-5,11.3c-3.1,3-7.2,4.6-11.6,4.5c-4.3-0.1-8.3-1.9-11.3-5C1328.7,36.2,1327.1,32.1,1327.1,27.8 M1327,27.8
			c-0.2,9,7,16.5,16,16.7c9,0.2,16.5-6.9,16.7-16s-7-16.5-16-16.7C1334.7,11.7,1327.2,18.8,1327,27.8L1327,27.8z"/>
	</g>
</g>
<g id="Layer_3_00000114057021966495752330000017659880717287601576_">
	<g>
		<circle class="st0" cx="1407.3" cy="60.3" r="16.2"/>
		<path class="st0" d="M1391.2,59.9c0.1-4.3,1.9-8.3,5-11.3c3.1-3,7.2-4.6,11.6-4.5s8.3,1.9,11.3,5c3,3.1,4.6,7.2,4.5,11.6
			c-0.1,4.3-1.9,8.3-5,11.3s-7.2,4.6-11.6,4.5c-4.3-0.1-8.3-1.9-11.3-5C1392.7,68.3,1391.1,64.2,1391.2,59.9 M1391,59.9
			c-0.2,9,7,16.5,16,16.7c9,0.2,16.5-7,16.7-16c0.2-9-6.9-16.5-16-16.7C1398.6,43.7,1391.2,50.9,1391,59.9L1391,59.9z"/>
	</g>
	<g>
		<circle class="st0" cx="1440" cy="60.9" r="16.2"/>
		<path class="st0" d="M1423.8,60.6c0.1-4.3,1.9-8.3,5-11.3c3.1-3,7.2-4.6,11.6-4.5c4.3,0.1,8.3,1.9,11.3,5c3,3.1,4.6,7.2,4.5,11.6
			c-0.1,4.3-1.9,8.3-5,11.3c-3.1,3-7.2,4.6-11.6,4.5c-4.3-0.1-8.3-1.9-11.3-5C1425.3,69,1423.7,64.9,1423.8,60.6 M1423.6,60.6
			c-0.2,9,7,16.5,16,16.7s16.5-7,16.7-16s-7-16.5-16-16.7C1431.3,44.4,1423.8,51.6,1423.6,60.6L1423.6,60.6z"/>
	</g>
	<g>
		<ellipse class="st0" cx="1440.7" cy="28.3" rx="16.2" ry="16.2"/>
		<path class="st0" d="M1424.5,28c0.1-4.3,1.9-8.3,5-11.3s7.2-4.6,11.6-4.5c4.3,0.1,8.3,1.9,11.3,5c3,3.1,4.6,7.2,4.5,11.6
			c-0.1,4.3-1.9,8.3-5,11.3c-3.1,3-7.2,4.6-11.6,4.5c-4.3-0.1-8.3-1.9-11.3-5C1426,36.4,1424.4,32.3,1424.5,28 M1424.3,27.9
			c-0.2,9,7,16.5,16,16.7c9,0.2,16.5-6.9,16.7-16s-7-16.5-16-16.7C1432,11.8,1424.5,18.9,1424.3,27.9L1424.3,27.9z"/>
	</g>
	<g>
		<ellipse class="st0" cx="1408.2" cy="27.8" rx="16.2" ry="16.2"/>
		<path class="st0" d="M1392,27.5c0.1-4.3,1.9-8.3,5-11.3c3.1-3,7.2-4.6,11.6-4.5c4.3,0.1,8.3,1.9,11.3,5c3,3.1,4.6,7.2,4.5,11.6
			c-0.1,4.3-1.9,8.3-5,11.3c-3.1,3-7.2,4.6-11.6,4.5c-4.3-0.1-8.3-1.9-11.3-5C1393.5,35.9,1391.9,31.8,1392,27.5 M1391.8,27.5
			c-0.2,9,7,16.5,16,16.7c9,0.2,16.5-6.9,16.7-16c0.2-9-7-16.5-16-16.7C1399.5,11.3,1392,18.5,1391.8,27.5L1391.8,27.5z"/>
	</g>
</g>
<g id="Layer_3_00000021832616899467929090000012025209313922865834_">
	<g>
		<circle class="st0" cx="1472.3" cy="60.5" r="16.2"/>
		<path class="st0" d="M1456.1,60.2c0.1-4.3,1.9-8.3,5-11.3c3.1-3,7.2-4.6,11.6-4.5c4.3,0.1,8.3,1.9,11.3,5c3,3.1,4.6,7.2,4.5,11.6
			c-0.1,4.3-1.9,8.3-5,11.3s-7.2,4.6-11.6,4.5c-4.3-0.1-8.3-1.9-11.3-5C1457.6,68.6,1456,64.5,1456.1,60.2 M1456,60.2
			c-0.2,9,7,16.5,16,16.7c9,0.2,16.5-7,16.7-16s-6.9-16.5-16-16.7C1463.6,44,1456.2,51.1,1456,60.2L1456,60.2z"/>
	</g>
	<g>
		<circle class="st0" cx="1505" cy="61.2" r="16.2"/>
		<path class="st0" d="M1488.8,60.9c0.1-4.3,1.9-8.3,5-11.3c3.1-3,7.2-4.6,11.6-4.5c4.3,0.1,8.3,1.9,11.3,5c3,3.1,4.6,7.2,4.5,11.6
			c-0.1,4.3-1.9,8.3-5,11.3c-3.1,3-7.2,4.6-11.6,4.5s-8.3-1.9-11.3-5C1490.3,69.3,1488.7,65.2,1488.8,60.9 M1488.6,60.8
			c-0.2,9,7,16.5,16,16.7s16.5-7,16.7-16s-7-16.5-16-16.7C1496.3,44.7,1488.8,51.8,1488.6,60.8L1488.6,60.8z"/>
	</g>
	<g>
		<ellipse class="st0" cx="1505.7" cy="28.5" rx="16.2" ry="16.2"/>
		<path class="st0" d="M1489.5,28.2c0.1-4.3,1.9-8.3,5-11.3s7.2-4.6,11.6-4.5c4.3,0.1,8.3,1.9,11.3,5c3,3.1,4.6,7.2,4.5,11.6
			c-0.1,4.3-1.9,8.3-5,11.3c-3.1,3-7.2,4.6-11.6,4.5s-8.3-1.9-11.3-5C1491,36.6,1489.4,32.5,1489.5,28.2 M1489.3,28.2
			c-0.2,9,7,16.5,16,16.7c9,0.2,16.5-6.9,16.7-16s-7-16.5-16-16.7C1497,12,1489.5,19.2,1489.3,28.2L1489.3,28.2z"/>
	</g>
	<g>
		<ellipse class="st0" cx="1473.2" cy="28.1" rx="16.2" ry="16.2"/>
		<path class="st0" d="M1457,27.7c0.1-4.3,1.9-8.3,5-11.3c3.1-3,7.2-4.6,11.6-4.5c4.3,0.1,8.3,1.9,11.3,5c3,3.1,4.6,7.2,4.5,11.6
			c-0.1,4.3-1.9,8.3-5,11.3c-3.1,3-7.2,4.6-11.6,4.5c-4.3-0.1-8.3-1.9-11.3-5C1458.5,36.2,1456.9,32.1,1457,27.7 M1456.8,27.7
			c-0.2,9,7,16.5,16,16.7c9,0.2,16.5-6.9,16.7-16c0.2-9-7-16.5-16-16.7C1464.5,11.6,1457,18.7,1456.8,27.7L1456.8,27.7z"/>
	</g>
</g>
<g id="Layer_3_00000053507903146928945960000000035129867383541171_">
	<g>
		<circle class="st0" cx="1535.9" cy="60.5" r="16.2"/>
		<path class="st0" d="M1519.7,60.1c0.1-4.3,1.9-8.3,5-11.3c3.1-3,7.2-4.6,11.6-4.5c4.3,0.1,8.3,1.9,11.3,5c3,3.1,4.6,7.2,4.5,11.6
			s-1.9,8.3-5,11.3c-3.1,3-7.2,4.6-11.6,4.5c-4.3-0.1-8.3-1.9-11.3-5C1521.2,68.6,1519.6,64.4,1519.7,60.1 M1519.6,60.1
			c-0.2,9,7,16.5,16,16.7c9,0.2,16.5-7,16.7-16c0.2-9-6.9-16.5-16-16.7C1527.2,43.9,1519.8,51.1,1519.6,60.1L1519.6,60.1z"/>
	</g>
	<g>
		<circle class="st0" cx="1568.6" cy="61.2" r="16.2"/>
		<path class="st0" d="M1552.4,60.8c0.1-4.3,1.9-8.3,5-11.3c3.1-3,7.2-4.6,11.6-4.5c4.3,0.1,8.3,1.9,11.3,5c3,3.1,4.6,7.2,4.5,11.6
			s-1.9,8.3-5,11.3c-3.1,3-7.2,4.6-11.6,4.5c-4.3-0.1-8.3-1.9-11.3-5C1553.9,69.2,1552.3,65.1,1552.4,60.8 M1552.2,60.8
			c-0.2,9,7,16.5,16,16.7c9,0.2,16.5-7,16.7-16c0.2-9-7-16.5-16-16.7C1559.9,44.7,1552.4,51.8,1552.2,60.8L1552.2,60.8z"/>
	</g>
	<g>
		<ellipse class="st0" cx="1569.3" cy="28.5" rx="16.2" ry="16.2"/>
		<path class="st0" d="M1553.1,28.2c0.1-4.3,1.9-8.3,5-11.3c3.1-3,7.2-4.6,11.6-4.5c4.3,0.1,8.3,1.9,11.3,5c3,3.1,4.6,7.2,4.5,11.6
			c-0.1,4.3-1.9,8.3-5,11.3c-3.1,3-7.2,4.6-11.6,4.5c-4.3-0.1-8.3-1.9-11.3-5C1554.6,36.6,1553,32.5,1553.1,28.2 M1552.9,28.2
			c-0.2,9,7,16.5,16,16.7c9,0.2,16.5-6.9,16.7-16c0.2-9-7-16.5-16-16.7S1553.1,19.2,1552.9,28.2L1552.9,28.2z"/>
	</g>
	<g>
		<ellipse class="st0" cx="1536.8" cy="28.1" rx="16.2" ry="16.2"/>
		<path class="st0" d="M1520.6,27.7c0.1-4.3,1.9-8.3,5-11.3c3.1-3,7.2-4.6,11.6-4.5c4.3,0.1,8.3,1.9,11.3,5c3,3.1,4.6,7.2,4.5,11.6
			c-0.1,4.3-1.9,8.3-5,11.3c-3.1,3-7.2,4.6-11.6,4.5c-4.3-0.1-8.3-1.9-11.3-5C1522.1,36.1,1520.5,32,1520.6,27.7 M1520.4,27.7
			c-0.2,9,7,16.5,16,16.7c9,0.2,16.5-6.9,16.7-16c0.2-9-7-16.5-16-16.7C1528.1,11.6,1520.6,18.7,1520.4,27.7L1520.4,27.7z"/>
	</g>
</g>
<g id="Layer_3_00000005249304713012292770000002606248452804654467_">
	<g>
		<circle class="st0" cx="1600.8" cy="60.9" r="16.2"/>
		<path class="st0" d="M1584.6,60.5c0.1-4.3,1.9-8.3,5-11.3c3.1-3,7.2-4.6,11.6-4.5c4.3,0.1,8.3,1.9,11.3,5c3,3.1,4.6,7.2,4.5,11.6
			c-0.1,4.3-1.9,8.3-5,11.3c-3.1,3-7.2,4.6-11.6,4.5c-4.3-0.1-8.3-1.9-11.3-5C1586.1,69,1584.5,64.8,1584.6,60.5 M1584.4,60.5
			c-0.2,9,7,16.5,16,16.7c9,0.2,16.5-7,16.7-16s-6.9-16.5-16-16.7C1592.1,44.3,1584.6,51.5,1584.4,60.5L1584.4,60.5z"/>
	</g>
	<g>
		<circle class="st0" cx="1633.4" cy="61.6" r="16.2"/>
		<path class="st0" d="M1617.2,61.2c0.1-4.3,1.9-8.3,5-11.3c3.1-3,7.2-4.6,11.6-4.5c4.3,0.1,8.3,1.9,11.3,5c3,3.1,4.6,7.2,4.5,11.6
			c-0.1,4.3-1.9,8.3-5,11.3c-3.1,3-7.2,4.6-11.6,4.5c-4.3-0.1-8.3-1.9-11.3-5C1618.7,69.6,1617.1,65.5,1617.2,61.2 M1617.1,61.2
			c-0.2,9,7,16.5,16,16.7s16.5-7,16.7-16c0.2-9-7-16.5-16-16.7C1624.7,45.1,1617.3,52.2,1617.1,61.2L1617.1,61.2z"/>
	</g>
	<g>
		<ellipse class="st0" cx="1634.1" cy="28.9" rx="16.2" ry="16.2"/>
		<path class="st0" d="M1617.9,28.6c0.1-4.3,1.9-8.3,5-11.3s7.2-4.6,11.6-4.5c4.3,0.1,8.3,1.9,11.3,5s4.6,7.2,4.5,11.6
			c-0.1,4.3-1.9,8.3-5,11.3c-3.1,3-7.2,4.6-11.6,4.5s-8.3-1.9-11.3-5C1619.4,37,1617.8,32.9,1617.9,28.6 M1617.8,28.6
			c-0.2,9,7,16.5,16,16.7c9,0.2,16.5-6.9,16.7-16c0.2-9-7-16.5-16-16.7C1625.4,12.4,1618,19.6,1617.8,28.6L1617.8,28.6z"/>
	</g>
	<g>
		<ellipse class="st0" cx="1601.6" cy="28.5" rx="16.2" ry="16.2"/>
		<path class="st0" d="M1585.4,28.1c0.1-4.3,1.9-8.3,5-11.3c3.1-3,7.2-4.6,11.6-4.5c4.3,0.1,8.3,1.9,11.3,5c3,3.1,4.6,7.2,4.5,11.6
			c-0.1,4.3-1.9,8.3-5,11.3c-3.1,3-7.2,4.6-11.6,4.5c-4.3-0.1-8.3-1.9-11.3-5C1586.9,36.5,1585.3,32.5,1585.4,28.1 M1585.3,28.1
			c-0.2,9,7,16.5,16,16.7c9,0.2,16.5-6.9,16.7-16s-7-16.5-16-16.7C1593,12,1585.5,19.1,1585.3,28.1L1585.3,28.1z"/>
	</g>
</g>
<g id="Layer_3_00000001645662996057837720000015737893827306346416_">
	<g>
		<circle class="st0" cx="1665.7" cy="61.2" r="16.2"/>
		<path class="st0" d="M1649.6,60.8c0.1-4.3,1.9-8.3,5-11.3c3.1-3,7.2-4.6,11.6-4.5c4.3,0.1,8.3,1.9,11.3,5c3,3.1,4.6,7.2,4.5,11.6
			c-0.1,4.3-1.9,8.3-5,11.3c-3.1,3-7.2,4.6-11.6,4.5c-4.3-0.1-8.3-1.9-11.3-5C1651.1,69.2,1649.5,65.1,1649.6,60.8 M1649.4,60.8
			c-0.2,9,7,16.5,16,16.7c9,0.2,16.5-7,16.7-16s-6.9-16.5-16-16.7S1649.6,51.8,1649.4,60.8L1649.4,60.8z"/>
	</g>
	<g>
		<circle class="st0" cx="1698.4" cy="61.8" r="16.2"/>
		<path class="st0" d="M1682.2,61.5c0.1-4.3,1.9-8.3,5-11.3c3.1-3,7.2-4.6,11.6-4.5c4.3,0.1,8.3,1.9,11.3,5c3,3.1,4.6,7.2,4.5,11.6
			c-0.1,4.3-1.9,8.3-5,11.3c-3.1,3-7.2,4.6-11.6,4.5c-4.3-0.1-8.3-1.9-11.3-5C1683.7,69.9,1682.1,65.8,1682.2,61.5 M1682,61.5
			c-0.2,9,7,16.5,16,16.7s16.5-7,16.7-16c0.2-9-7-16.5-16-16.7C1689.7,45.4,1682.2,52.5,1682,61.5L1682,61.5z"/>
	</g>
	<g>
		<ellipse class="st0" cx="1699.1" cy="29.2" rx="16.2" ry="16.2"/>
		<path class="st0" d="M1682.9,28.9c0.1-4.3,1.9-8.3,5-11.3s7.2-4.6,11.6-4.5c4.3,0.1,8.3,1.9,11.3,5s4.6,7.2,4.5,11.6
			c-0.1,4.3-1.9,8.3-5,11.3c-3.1,3-7.2,4.6-11.6,4.5c-4.3-0.1-8.3-1.9-11.3-5C1684.4,37.3,1682.8,33.2,1682.9,28.9 M1682.7,28.8
			c-0.2,9,7,16.5,16,16.7c9,0.2,16.5-6.9,16.7-16c0.2-9-7-16.5-16-16.7C1690.4,12.7,1683,19.8,1682.7,28.8L1682.7,28.8z"/>
	</g>
	<g>
		<ellipse class="st0" cx="1666.6" cy="28.7" rx="16.2" ry="16.2"/>
		<path class="st0" d="M1650.4,28.4c0.1-4.3,1.9-8.3,5-11.3c3.1-3,7.2-4.6,11.6-4.5c4.3,0.1,8.3,1.9,11.3,5c3,3.1,4.6,7.2,4.5,11.6
			c-0.1,4.3-1.9,8.3-5,11.3c-3.1,3-7.2,4.6-11.6,4.5c-4.3-0.1-8.3-1.9-11.3-5C1651.9,36.8,1650.3,32.7,1650.4,28.4 M1650.3,28.4
			c-0.2,9,7,16.5,16,16.7c9,0.2,16.5-6.9,16.7-16s-7-16.5-16-16.7C1657.9,12.2,1650.4,19.4,1650.3,28.4L1650.3,28.4z"/>
	</g>
</g>
<g id="Layer_3_00000121973020518916198940000005883388442352616891_">
	<g>
		<circle class="st0" cx="1730.1" cy="60.7" r="16.2"/>
		<path class="st0" d="M1713.9,60.4c0.1-4.3,1.9-8.3,5-11.3c3.1-3,7.2-4.6,11.6-4.5c4.3,0.1,8.3,1.9,11.3,5c3,3.1,4.6,7.2,4.5,11.6
			c-0.1,4.3-1.9,8.3-5,11.3c-3.1,3-7.2,4.6-11.6,4.5c-4.3-0.1-8.3-1.9-11.3-5C1715.4,68.8,1713.8,64.7,1713.9,60.4 M1713.8,60.4
			c-0.2,9,7,16.5,16,16.7c9,0.2,16.5-7,16.7-16s-6.9-16.5-16-16.7C1721.4,44.2,1714,51.3,1713.8,60.4L1713.8,60.4z"/>
	</g>
	<g>
		<circle class="st0" cx="1762.8" cy="61.4" r="16.2"/>
		<path class="st0" d="M1746.6,61.1c0.1-4.3,1.9-8.3,5-11.3c3.1-3,7.2-4.6,11.6-4.5c4.3,0.1,8.3,1.9,11.3,5c3,3.1,4.6,7.2,4.5,11.6
			s-1.9,8.3-5,11.3c-3.1,3-7.2,4.6-11.6,4.5c-4.3-0.1-8.3-1.9-11.3-5C1748.1,69.5,1746.5,65.4,1746.6,61.1 M1746.4,61
			c-0.2,9,7,16.5,16,16.7s16.5-7,16.7-16c0.2-9-7-16.5-16-16.7C1754.1,44.9,1746.6,52,1746.4,61L1746.4,61z"/>
	</g>
	<g>
		<ellipse class="st0" cx="1763.4" cy="28.7" rx="16.2" ry="16.2"/>
		<path class="st0" d="M1747.3,28.4c0.1-4.3,1.9-8.3,5-11.3s7.2-4.6,11.6-4.5c4.3,0.1,8.3,1.9,11.3,5s4.6,7.2,4.5,11.6
			c-0.1,4.3-1.9,8.3-5,11.3c-3.1,3-7.2,4.6-11.6,4.5c-4.3-0.1-8.3-1.9-11.3-5C1748.8,36.8,1747.2,32.7,1747.3,28.4 M1747.1,28.4
			c-0.2,9,7,16.5,16,16.7c9,0.2,16.5-6.9,16.7-16c0.2-9-7-16.5-16-16.7C1754.8,12.2,1747.3,19.4,1747.1,28.4L1747.1,28.4z"/>
	</g>
	<g>
		<ellipse class="st0" cx="1730.9" cy="28.3" rx="16.2" ry="16.2"/>
		<path class="st0" d="M1714.7,27.9c0.1-4.3,1.9-8.3,5-11.3c3.1-3,7.2-4.6,11.6-4.5c4.3,0.1,8.3,1.9,11.3,5c3,3.1,4.6,7.2,4.5,11.6
			c-0.1,4.3-1.9,8.3-5,11.3c-3.1,3-7.2,4.6-11.6,4.5c-4.3-0.1-8.3-1.9-11.3-5C1716.3,36.4,1714.7,32.3,1714.7,27.9 M1714.6,27.9
			c-0.2,9,7,16.5,16,16.7c9,0.2,16.5-6.9,16.7-16s-7-16.5-16-16.7C1722.3,11.8,1714.8,18.9,1714.6,27.9L1714.6,27.9z"/>
	</g>
</g>
<g id="Layer_3_00000183970412730965601260000008688592375078152376_">
	<g>
		<circle class="st0" cx="1794.9" cy="60.4" r="16.2"/>
		<path class="st0" d="M1778.8,60c0.1-4.3,1.9-8.3,5-11.3c3.1-3,7.2-4.6,11.6-4.5c4.3,0.1,8.3,1.9,11.3,5c3,3.1,4.6,7.2,4.5,11.6
			c-0.1,4.3-1.9,8.3-5,11.3s-7.2,4.6-11.6,4.5c-4.3-0.1-8.3-1.9-11.3-5C1780.3,68.5,1778.7,64.3,1778.8,60 M1778.6,60
			c-0.2,9,7,16.5,16,16.7c9,0.2,16.5-7,16.7-16c0.2-9-6.9-16.5-16-16.7C1786.2,43.8,1778.8,51,1778.6,60L1778.6,60z"/>
	</g>
	<g>
		<circle class="st0" cx="1827.6" cy="61.1" r="16.2"/>
		<path class="st0" d="M1811.4,60.7c0.1-4.3,1.9-8.3,5-11.3c3.1-3,7.2-4.6,11.6-4.5c4.3,0.1,8.3,1.9,11.3,5c3,3.1,4.6,7.2,4.5,11.6
			c-0.1,4.3-1.9,8.3-5,11.3c-3.1,3-7.2,4.6-11.6,4.5c-4.3-0.1-8.3-1.9-11.3-5C1812.9,69.1,1811.3,65,1811.4,60.7 M1811.2,60.7
			c-0.2,9,7,16.5,16,16.7s16.5-7,16.7-16s-7-16.5-16-16.7C1818.9,44.6,1811.4,51.7,1811.2,60.7L1811.2,60.7z"/>
	</g>
	<g>
		<ellipse class="st0" cx="1828.3" cy="28.4" rx="16.2" ry="16.2"/>
		<path class="st0" d="M1812.1,28.1c0.1-4.3,1.9-8.3,5-11.3s7.2-4.6,11.6-4.5c4.3,0.1,8.3,1.9,11.3,5c3,3.1,4.6,7.2,4.5,11.6
			c-0.1,4.3-1.9,8.3-5,11.3c-3.1,3-7.2,4.6-11.6,4.5c-4.3-0.1-8.3-1.9-11.3-5C1813.6,36.5,1812,32.4,1812.1,28.1 M1811.9,28.1
			c-0.2,9,7,16.5,16,16.7c9,0.2,16.5-6.9,16.7-16s-7-16.5-16-16.7C1819.6,11.9,1812.2,19.1,1811.9,28.1L1811.9,28.1z"/>
	</g>
	<g>
		<ellipse class="st0" cx="1795.8" cy="28" rx="16.2" ry="16.2"/>
		<path class="st0" d="M1779.6,27.6c0.1-4.3,1.9-8.3,5-11.3c3.1-3,7.2-4.6,11.6-4.5c4.3,0.1,8.3,1.9,11.3,5c3,3.1,4.6,7.2,4.5,11.6
			c-0.1,4.3-1.9,8.3-5,11.3c-3.1,3-7.2,4.6-11.6,4.5c-4.3-0.1-8.3-1.9-11.3-5C1781.1,36,1779.5,31.9,1779.6,27.6 M1779.4,27.6
			c-0.2,9,7,16.5,16,16.7c9,0.2,16.5-6.9,16.7-16c0.2-9-7-16.5-16-16.7C1787.1,11.4,1779.6,18.6,1779.4,27.6L1779.4,27.6z"/>
	</g>
</g>
<g id="Layer_3_00000034087518722548272210000007161211849094078871_">
	<g>
		<circle class="st0" cx="1859.9" cy="60.6" r="16.2"/>
		<path class="st0" d="M1843.7,60.3c0.1-4.3,1.9-8.3,5-11.3c3.1-3,7.2-4.6,11.6-4.5c4.3,0.1,8.3,1.9,11.3,5c3,3.1,4.6,7.2,4.5,11.6
			c-0.1,4.3-1.9,8.3-5,11.3c-3.1,3-7.2,4.6-11.6,4.5c-4.3-0.1-8.3-1.9-11.3-5C1845.2,68.7,1843.6,64.6,1843.7,60.3 M1843.6,60.3
			c-0.2,9,7,16.5,16,16.7c9,0.2,16.5-7,16.7-16s-6.9-16.5-16-16.7C1851.2,44.1,1843.8,51.3,1843.6,60.3L1843.6,60.3z"/>
	</g>
	<g>
		<ellipse class="st0" cx="1860.8" cy="28.2" rx="16.2" ry="16.2"/>
		<path class="st0" d="M1844.6,27.9c0.1-4.3,1.9-8.3,5-11.3c3.1-3,7.2-4.6,11.6-4.5c4.3,0.1,8.3,1.9,11.3,5c3,3.1,4.6,7.2,4.5,11.6
			c-0.1,4.3-1.9,8.3-5,11.3c-3.1,3-7.2,4.6-11.6,4.5c-4.3-0.1-8.3-1.9-11.3-5C1846.1,36.3,1844.5,32.2,1844.6,27.9 M1844.4,27.9
			c-0.2,9,7,16.5,16,16.7c9,0.2,16.5-6.9,16.7-16s-7-16.5-16-16.7C1852.1,11.7,1844.6,18.8,1844.4,27.9L1844.4,27.9z"/>
	</g>
</g>
</svg>
