<?xml version="1.0" encoding="utf-8"?>
<!-- Generator: Adobe Illustrator 25.3.0, SVG Export Plug-In . SVG Version: 6.00 Build 0)  -->
<svg version="1.1" id="Layer_1" xmlns="http://www.w3.org/2000/svg" xmlns:xlink="http://www.w3.org/1999/xlink" x="0px" y="0px"
	 viewBox="0 0 323 262" style="enable-background:new 0 0 323 262;" xml:space="preserve">
<style type="text/css">
	.st0{fill:#FFFFFF;}
	.st1{fill:none;stroke:#000000;stroke-width:8;stroke-miterlimit:10;}
</style>
<g>
	<path class="st0" d="M42,234c-6.5,0-11.8-6.1-11.8-13.6V76.3c0-7.5,5.3-13.6,11.8-13.6h241.4c1.1,0,5,0.3,8.2,3.8
		c2.3,2.6,3.6,6,3.6,9.7v144.1c0,7.5-5.3,13.6-11.8,13.6L42,234L42,234z"/>
	<path d="M283.5,66.8c0.7,0,3.1,0.2,5.2,2.5c1.7,1.8,2.6,4.4,2.6,7.1v144.1c0,5.3-3.5,9.6-7.8,9.6H42c-4.3,0-7.8-4.3-7.8-9.6V76.3
		c0-5.3,3.5-9.6,7.8-9.6h67.1L283.5,66.8 M283.5,58.8c-58.1,0-116.2,0-174.4,0c-22.4,0-44.7,0-67.1,0c-8.7,0-15.8,7.9-15.8,17.6
		v144.1c0,9.7,7.1,17.6,15.8,17.6h241.4c8.7,0,15.8-7.9,15.8-17.6V76.3c0-4.8-1.8-9.2-4.6-12.4C290.1,58.9,284.5,58.8,283.5,58.8
		L283.5,58.8z"/>
</g>
<g>
	<line class="st1" x1="26.2" y1="120.2" x2="299.3" y2="120.2"/>
</g>
<path class="st1" d="M212.6,58.8V36.2c0-5.3-6-9.6-13.5-9.6h-32.5h-40.3c-7.4,0-13.5,4.3-13.5,9.6v22.6"/>
</svg>
