<?xml version="1.0" encoding="utf-8"?>
<!-- Generator: Adobe Illustrator 28.0.0, SVG Export Plug-In . SVG Version: 6.00 Build 0)  -->
<svg version="1.1" id="Layer_1" xmlns="http://www.w3.org/2000/svg" xmlns:xlink="http://www.w3.org/1999/xlink" x="0px" y="0px"
	 viewBox="0 0 636.7 530.1" style="enable-background:new 0 0 636.7 530.1;" xml:space="preserve">
<style type="text/css">
	.st0{fill:#99AFFF;}
	.st1{fill:none;stroke:#99AFFF;stroke-miterlimit:10;}
	.st2{fill:#1D1D1D;}
	.st3{font-family:'Roboto-Regular';}
	.st4{font-size:20px;}
	.st5{enable-background:new    ;}
	.st6{fill:none;stroke:#0409D2;stroke-width:6;stroke-miterlimit:10;}
	.st7{fill:#0409D2;stroke:#0409D2;stroke-width:0.5;stroke-miterlimit:10;}
</style>
<g id="Layer_1_00000089554265331324014000000011328455758227689388_">
	<g>
		<path class="st0" d="M340.2,66.5c25.7,0,50.6,5,74.1,15c22.7,9.6,43,23.3,60.5,40.8s31.2,37.9,40.8,60.5c9.9,23.5,15,48.4,15,74.1
			c0,25.7-5,50.6-15,74.1c-9.6,22.7-23.3,43-40.8,60.5s-37.9,31.2-60.5,40.8c-23.5,9.9-48.4,15-74.1,15s-50.6-5-74.1-15
			c-22.7-9.6-43-23.3-60.5-40.8s-31.2-37.9-40.8-60.5c-9.9-23.5-15-48.4-15-74.1s5-50.6,15-74.1c9.6-22.7,23.3-43,40.8-60.5
			s37.9-31.2,60.5-40.8C289.5,71.5,314.5,66.5,340.2,66.5 M340.2,65.5c-105.7,0-191.4,85.7-191.4,191.4s85.7,191.4,191.4,191.4
			s191.4-85.7,191.4-191.4S445.9,65.5,340.2,65.5L340.2,65.5z"/>
	</g>
	<g>
		<path class="st0" d="M340.4,94.7c43.3,0,84,16.9,114.6,47.5s47.5,71.3,47.5,114.6s-16.9,84-47.5,114.6s-71.3,47.5-114.6,47.5
			s-84-16.9-114.6-47.5s-47.5-71.3-47.5-114.6s16.9-84,47.5-114.6S297.1,94.7,340.4,94.7 M340.4,93.7c-90,0-163,73-163,163
			s73,163,163,163s163-73,163-163S430.4,93.7,340.4,93.7L340.4,93.7z"/>
	</g>
	<g>
		<path class="st0" d="M339.3,118.2c36.4,0,70.7,14.2,96.4,39.9c25.8,25.8,39.9,60,39.9,96.4s-14.2,70.7-39.9,96.4
			c-25.8,25.8-60,39.9-96.4,39.9s-70.7-14.2-96.4-39.9c-25.8-25.8-39.9-60-39.9-96.4s14.2-70.7,39.9-96.4
			C268.7,132.4,302.9,118.2,339.3,118.2 M339.3,117.2c-75.9,0-137.3,61.5-137.3,137.3s61.5,137.3,137.3,137.3
			s137.3-61.5,137.3-137.3S415.2,117.2,339.3,117.2L339.3,117.2z"/>
	</g>
	<g>
		<path class="st0" d="M338.4,146.8c28.8,0,55.8,11.2,76.2,31.5c20.3,20.3,31.5,47.4,31.5,76.2s-11.2,55.8-31.5,76.2
			c-20.3,20.3-47.4,31.5-76.2,31.5c-28.8,0-55.8-11.2-76.2-31.5c-20.3-20.3-31.5-47.4-31.5-76.2s11.2-55.8,31.5-76.2
			S309.6,146.8,338.4,146.8 M338.4,145.8c-60,0-108.7,48.7-108.7,108.7s48.7,108.7,108.7,108.7s108.7-48.7,108.7-108.7
			S398.4,145.8,338.4,145.8L338.4,145.8z"/>
	</g>
	<g>
		<path class="st0" d="M338.4,172.6c45.2,0,82,36.8,82,82s-36.8,82-82,82s-82-36.8-82-82S293.2,172.6,338.4,172.6 M338.4,171.6
			c-45.8,0-83,37.1-83,83s37.2,83,83,83s83-37.1,83-83S384.2,171.6,338.4,171.6L338.4,171.6z"/>
	</g>
	<g>
		<line class="st1" x1="340.2" y1="65.5" x2="340.2" y2="448.4"/>
	</g>
	<line class="st1" x1="148.8" y1="255.9" x2="531.6" y2="255.9"/>
	<line class="st1" x1="205.9" y1="121.6" x2="475.8" y2="391.5"/>
	<line class="st1" x1="474.3" y1="121.4" x2="204.6" y2="391.1"/>
	<text transform="matrix(1 0 0 1 291.9583 44.7649)" class="st2 st3 st4">Conception</text>
	<text transform="matrix(1 0 0 1 518.2397 97.7142)" class="st5"><tspan x="0" y="0" class="st2 st3 st4">Design</tspan><tspan x="-24.6" y="24" class="st2 st3 st4">d’interaction</tspan></text>
	<text transform="matrix(1 0 0 1 562.9067 249.929)" class="st5"><tspan x="0" y="0" class="st2 st3 st4">Adobe</tspan><tspan x="-13.9" y="24" class="st2 st3 st4">Illustrator</tspan></text>
	<text transform="matrix(1 0 0 1 491.5903 402.8346)" class="st2 st3 st4">Blender</text>
	<text transform="matrix(1 0 0 1 294.3637 485.0517)" class="st2 st3 st4">Maquettes</text>
	<text transform="matrix(1 0 0 1 112.5946 385.835)" class="st5"><tspan x="0" y="0" class="st2 st3 st4">Design</tspan><tspan x="-16.4" y="24" class="st2 st3 st4">d’interface</tspan></text>
	<text transform="matrix(1 0 0 1 30.1003 250.5605)" class="st5"><tspan x="0" y="0" class="st2 st3 st4">Experience </tspan><tspan x="7.1" y="24" class="st2 st3 st4">utilisateur</tspan></text>
	<text transform="matrix(1 0 0 1 100.9692 94.6985)" class="st2 st3 st4">Adobe </text>
	<text transform="matrix(1 0 0 1 83.7692 118.6985)" class="st2 st3 st4">Photoshop</text>
	<path class="st6" d="M238.6,357.2C219.8,330,171.7,297,180.7,256c13.4-61.1,67.2-30,94-65.5c17.4-23,4.6-95.2,64.7-91.6
		c38.8,2.3,77.8,17.8,104.9,52.6c29.7,38.1,22.3,73.9,22.3,104.9c0,31.1-29.3,32.3-67.3,58.7c-34.7,24.1,8.4,72.8-58.3,80.9
		C341,396,271.4,404.5,238.6,357.2z"/>
</g>
<g id="Layer_2_00000027605450271391558060000003803373257392116142_">
	<circle class="st7" cx="340.3" cy="66.3" r="4.1"/>
	<circle class="st7" cx="148.8" cy="255.9" r="4.1"/>
	<circle class="st7" cx="531.6" cy="255.9" r="4.1"/>
	<circle class="st7" cx="340.3" cy="448.4" r="4.1"/>
	<circle class="st7" cx="475" cy="120.7" r="4.1"/>
	<circle class="st7" cx="205" cy="120.7" r="4.1"/>
	<circle class="st7" cx="476.2" cy="391.9" r="4.1"/>
	<circle class="st7" cx="205" cy="390.8" r="4.1"/>
</g>
</svg>
