<?xml version="1.0" encoding="utf-8"?>
<!-- Generator: Adobe Illustrator 28.0.0, SVG Export Plug-In . SVG Version: 6.00 Build 0)  -->
<svg version="1.1" id="Illustrations" xmlns="http://www.w3.org/2000/svg" xmlns:xlink="http://www.w3.org/1999/xlink" x="0px"
	 y="0px" viewBox="0 0 1366.6 792" style="enable-background:new 0 0 1366.6 792;" xml:space="preserve">
<style type="text/css">
	.st0{display:none;}
	.st1{display:inline;fill:#f6ebed;}
	.st2{display:inline;stroke:#442ceb;stroke-miterlimit:10;}
	.st3{display:inline;fill:none;stroke:#f6ebed;stroke-miterlimit:10;}
	.st4{display:inline;}
	.st5{fill:none;stroke:#442ceb;stroke-miterlimit:10;}
	.st6{display:inline;fill:none;stroke:#442ceb;stroke-miterlimit:10;}
	.st7{fill:none;stroke:#442ceb;stroke-width:3;stroke-miterlimit:10;}
	.st8{fill:#f6ebed;stroke:#442ceb;stroke-miterlimit:10;}
	.st9{fill:none;stroke:#f6ebed;stroke-miterlimit:10;}
	.st10{display:none;fill:#f6ebed;stroke:#442ceb;stroke-miterlimit:10;}
	.st11{fill:#f6ebed;stroke:#1D201F;stroke-miterlimit:10;}
	.st12{fill:#f6ebed;stroke:#442ceb;stroke-miterlimit:10;}
	.st16{fill:none;stroke:#1D201F;stroke-miterlimit:10;}
	.st14{display:inline;fill:#f6ebed;stroke:#442ceb;stroke-miterlimit:10;}
	.st15{clip-path:url(#XMLID_00000126296514535543158670000009396766005886184630_);fill:none;stroke:#442ceb;stroke-miterlimit:10;}
	.st16{
		fill:#442ceb; stroke: none
	}
</style>
<g id="Environment" class="st0">
	<g>
		<rect x="411.9" y="-16" class="st1" width="661.8" height="661.8"/>
	</g>
	<g id="Plants">
		<path class="st2" d="M1059.3,456.8h-73.7l-4.3,0c0,0.1-1.8-6-3.4-9c-5.9-15.3-8.9-32.1-8.9-49.5c0-7.3,1.1-15.9,7.1-21.3
			c5.4-4.9,13.1-5.5,18.8-3.2c5.7,2.3,9.6,7.1,13.1,11.9c4.5,6.1,8.5,12.6,12,19.4c-0.1-4.9-0.2-10-0.2-15.1
			c0-54.4,7.1-98.6,15.9-98.6c8.8,0,23.2,38,23.2,92.4L1059.3,456.8z"/>
		<line class="st3" x1="994.5" y1="403" x2="1007.6" y2="441.1"/>
		<g id="Grass" class="st4">
			<path class="st5" d="M961.3,455.8c4.9-6.2,7.1-14.5,6-22.3c-1.7-2.7-10.1,19.6-11.8,20.7c-0.6,0.1-6.8-17.5-7.5-13.7
				c-0.8,4-1.7,13.8-2.3,13.6c-0.8,0.2-14.5-18.7-14.5-15.9c2.3,5.1,7.5,14.9,6.9,15.3c-0.6,0.5-10.4-8.9-9.9-6.5
				c0.4,2.9,1.1,5.7,2.2,8.3"/>
			<path class="st5" d="M923.1,456c-1.3-5.4-3.4-9.8-5.9-12.5c-0.9-1-1.9,0.8-1.7,2.9c0.4,4.4,0.1,9.1-0.9,12.9"/>
		</g>
		<path class="st6" d="M490.5,455.8c4.9-6.2,7.1-14.5,6-22.3c-1.7-2.7-10.1,19.6-11.8,20.7c-0.6,0.1-6.8-17.5-7.5-13.7
			c-0.8,4-1.7,13.8-2.3,13.6c-0.8,0.2-14.5-18.7-14.5-15.9c2.3,5.1,7.5,14.9,6.9,15.3c-0.6,0.5-10.4-8.9-9.9-6.5
			c0.4,2.9,1.1,5.7,2.2,8.3"/>
		<path class="st6" d="M446.1,453.3c-1.3-5.4-3.4-9.8-5.9-12.5c-0.9-1-1.9,0.8-1.7,2.9c0.4,4.4,0.1,9.1-0.9,12.9"/>
		<path class="st6" d="M505.6,450.3c1.3-6.5,3.4-11.9,5.9-15.2c0.9-1.2,1.9,1,1.7,3.5c-0.4,5.3-0.1,11,0.9,15.7"/>
	</g>
</g>
<line class="st7" x1="28.2" y1="604.6" x2="1361.6" y2="364.4"/>
<g id="Body">
	<g id="Shoes">
		<g id="ShoesRight">
			<path class="st8" d="M577.6,639.2l-34.1-26.3c7.9-5.8,16.6-35.7,20-42.4l35.4,30.7L577.6,639.2z"/>
			<path class="st16" d="M509.8,657.3c-2.2,2.6,2.4,23.3,5.8,26.8c3.4,3.6,26.3,7.7,34.6,3.2c15.5-8.3,42.4-68.2,41-68
				c-7.5,1.3-20.9,0.7-27.4-3.3c-7.7-4.7-9.8-14.1-12-17.1C549.9,596.4,537.8,625,509.8,657.3z"/>
			<path class="st9" d="M509.8,658.1c3.3,12.8,6.5,18.9,9.7,20.4c4.2,2,27.7,4.1,33-2.1s28.8-38,37.4-55.3"/>
		</g>
		<g id="ShoeLeft">
			<path class="st8" d="M692.1,653h59.7l-0.8-1.8c-2.9-7.6-13.4-26.3-15.4-34.9l-43.5,0.1V653z"/>
			<path class="st16" d="M808,660.3c7.3,3,6.5,23.1,2.5,23.2c-28.6,0.7-116.1,4.7-122.7,0c-3.2-2.3,2.3-35.6,3.8-35.3c8,1.5,22.7-0.2,29.2-3
				c4.6-2,14.5-12.6,16.9-16.1C739.8,626.1,755.9,638.6,808,660.3z"/>
			<line class="st9" x1="686.8" y1="675.3" x2="810.6" y2="675.3"/>
		</g>
	</g>
	<g id="Pants">
		<path class="st10" d="M486.9,646.1c-8.3-7.6-63.7-5.8-70.6-17.6c-5.1-8.8,10.6-7,6.4-17.6c-14.2-35.5,4.5-1.2,4.5-43.9
			c0-104.6,38.8-303.3,45.4-304c18.8-2.1,73.7-9,88,5.3c18.5,18.5,16.8,186.7,16.8,261c0,33.1-17,60.8-18.7,77.3
			c-1.4,13.4,13.2,18,8.1,23.9c-8.6,9.8-28,4.2-58.9,15.6c-7.2,2.7,20.5-258.4,13.7-259.2C510.7,385.5,496.5,654.8,486.9,646.1"/>
		<path class="st5" d="M730.8,265.4c-2.8,1.6-4.8,4.5-5.3,7.6c-0.8,5.3,2.4,10.2,4.2,15.3c3.2,9.1,1.7,19.7-4.1,27.5"/>
		<path class="st5" d="M739.7,267.5c1,12.6,2.1,25.2,3.1,37.8"/>
		<path class="st8" d="M723.5,328.1c-0.8,34.9-23.5,103.7-23.5,103.7c-5.3,8.5-57.5,185.9-71.7,183.2c-18.6-3.5-59.1-21.5-68.6-45.4
			c-5.3-13.4,43.7-103.9,57-136.3c11-26.9,48.1-171.1,48.1-171.1c24.7-8.8,96.3-12.3,98-6.2c24.1,83.8,9.8,144.5,9.8,212.5
			c0,58.6-8.9,123.4-7.1,151.1c0,0-63.8,4.4-78.4,4.5c-5.3,0,9.1-177.3,9.1-177.3"/>
		<path class="st5" d="M754.9,301.3c6.2,28.4,9.4,57.4,9.8,86.5"/>
		<path class="st5" d="M699.3,300.3c-5.2,38.5-15.2,76.3-29.7,112.4"/>
		<path class="st5" d="M707.3,260c-0.1,0.1-0.2,0.2-0.3,0.2c16.4-4.6,34-4.9,50.5-0.9c0.3-0.3,0.6-0.7,0.9-1"/>
	</g>
	<g id="Head">
		<path class="st11" d="M727.8,219.6c-20.2,3.1-44.3-51.9-43.1-53.3l9.4-5.3c5.3-9.2,6.7-23.5,5.7-33.2c-2.4-3.1-4.2-8.2-2-11
			c7.7-7.9,11.6,5.4,12.7,5.1c5.4-3.2,23.6-5.4,23.1-23.2c-0.2-0.8,6.4,8.1,6.4,8.1c3.7,22.8-2,47.4-8.1,51.5
			c-2.1,1.1-11.2-2.4-11.2-2.4c2,6.3,5.7,10.4,6.8,10.8c2.8,1.1,8.5,3.3,15.4,5.9c3.6,0.2-3.3,43.7-13.9,46.9L727.8,219.6z"/>
		<path class="st12" d="M697.2,155.4c-13.3,38.4-8.3,65.1-22.3,65.1s-19.6-20.8,3.7-54c9.7-13.9-7-54.1,22.1-72.1
			c8.3-5.1,40-7.3,40.9,18.5c0.1,3.9-4-10.6-12.4-0.5c-2.2,2.6-21,19.9-21.8,8.8c-0.5-7.8-14.2-8.8-8.5,5.7
			C702.5,135.8,700,147.5,697.2,155.4z"/>
	</g>
	<g id="Top">
		<path class="st8" d="M748.4,207.1c3.8,8.1,8.2,38.2,0.7,39c-28.3,3-76.9-5.4-76.9-5.4c0-5.5,7.3-39.9,12.7-46.3
			c5.3-6.1-7-23.8-5-24.5c2.2-0.8,7.8-3.6,9.9-4.3c3-1.1,14.7,41.3,34,41.5c13.7,0.1,6.3-36.7,13.7-34.1c3.9,1.3,4.8,0.9,6.6,3.4
			C749.3,183.9,744.6,199.1,748.4,207.1z"/>
	</g>
	<g id="Coat">
		<path class="st11" d="M808.4,371.1c-2.5,11.9,4.6,27.6,8.1,27.6c7.5,0,21.2-2.3,21.2-14.4s-1.8-27.7-9.3-27.7
			S809.6,365.5,808.4,371.1z"/>
		<path class="st8" d="M695.1,162.1c0,33.7,19.5,74.5,10.4,104.5c-54,178.1-48.3,264-72.4,299.7c-3,4.5-71.7-25.5-73.8-22.5
			c-2,2.8,60.2-134.2,79.5-196.4c0.4-1.2-16.8,6.2-17.2-2.1c-0.2-6.5-15.6-58.6-12-75.2c0.9-4.3,46.9-89.9,49-93.1
			C660.9,173.3,694.4,164.1,695.1,162.1"/>
		<path class="st8" d="M727,165.9c7.1,38.1,44.6,123.5,44.8,154.8c0.9,175-13.1,199.2-12.1,238.6c0.1,5.4,50.4,3.9,52.6,6.9
			c2.1,2.8,10.4-138-9.5-200.1c-0.4-1.2,0.6,20.6,3.5,12.8c8.5-23.4,27.6-19.9,26.7-23.3c-1.1-4.3-74.5-175.3-76.5-178.4
			C753.9,173.4,727.7,167.9,727,165.9"/>
		<path class="st5" d="M646.7,270.1c5.7,9.9,10.6,20.3,14.6,31c2.1,5.5,3.9,11,5.6,16.6c1,3.6,3.6,12,3.6,15.8"/>
		<path class="st5" d="M651.5,277c8.4-18.8,16.9-37.7,25.3-56.5"/>
		<path class="st12" d="M668.6,322.2c-2.2-4.5-13.9,3.5-25.9,9.7s-20.2,11.8-18,16.3c2.2,4.5,13.1,0.9,25.1-5.3
			C661.8,336.8,670.9,326.7,668.6,322.2z"/>
		<path class="st8" d="M666.9,338.7l-19.6,11.5c-4.6,2.7-8.8-16.3-7.3-16.9l21-10.6c4.6-2.7,7,2.1,9.6,6.7l9,15.1
			C682.3,349.1,666.9,338.7,666.9,338.7z"/>
		<line class="st5" x1="635.6" y1="357.5" x2="663.1" y2="340.9"/>
		<path class="st16" d="M765.3,239.5c18.8,44.8,32.4,91.8,40.4,139.8"/>
	</g>
</g>
<g id="Dogs" class="st0">
	<g id="Dog_00000093138238444861712480000002035648437352320682_">
		<path class="st14" d="M746,408.5c4.1,50.2,0.9,100.4-7.6,148.6c0,5.3,8.6,9.3,11.6,0.6c6.1-15.2,11.1-33,14.2-49.6
			c1.7-8.9,2.7-15.4,3.2-22.4"/>
		<path class="st14" d="M869.3,485.6c-0.6,14.1-1.1,38.3-1.7,52.3c-0.3,6.5-0.6,13.4-2.8,18.7c-2.2,5.3-6.9,7.8-9.7,3.3
			c-2.3-2,2.5-35.9-1.4-52.4c-5.8-24.6-14.8-52.5-25.9-77"/>
		<path class="st14" d="M758.9,423c1.2,30.3,8.1,73,8.1,73c0.5,4.1,36.2,53.9,42.5,58.1c8.9-5.1-3.1-27.8-8.9-38.1
			c-5.8-10.3-15.9-22.8-16.1-37.2c-0.2-8.9,1.8-19.2,3.9-28.7c1.3-5.8,2.9-12.6,3.1-13.8l1.5,0.1c35.7,1.9,65.8-25,71.5-14.3
			l0.7,1.6c4.3,21.3,1.2,58.4,5.6,66.7c10.2,19.4,36.2,68,39.9,63.7c0,0,4.2-2.4,2.2-8.6c-10.7-32.8-26.2-56.9-22.7-68.1
			c4.3-13.6,15.2-77.2,17.3-79.1c1.8-1.5,50.8,28,78.9,4.2c1.5-1.2-17.2,7.7-44.4,0.6c-16.4-4.3-33.8-22-60-30.8
			c-14-4.7-96.4,2.6-113.7-8.5c-30.7-19.8,25.8,23,5-14.4c-4-7.3-13.7-9.6-24.1-13.4c-10.4-3.8-21.6-10-26.5-9.7
			c-8.1,0.6-18.5,13.9-37.8,23.9c-12.3,6.3,36.1,11.2,36.1,11.2C731,378.3,740.1,406.5,758.9,423L758.9,423z"/>
		<path class="st6" d="M684.7,347.3c-8.9-5.7-17.6-12.3-26-19.6"/>
		<path class="st6" d="M744.7,364.7c-12.2-1.9-24.2-4.8-35.9-8.6"/>
		<path class="st6" d="M725.6,360.5c6.4-4,12.1-9.1,16.9-14.9"/>
		<path class="st6" d="M945.2,370.6c-8.8-0.1-14.4,4.7-17,10.1"/>
		<path class="st6" d="M968.7,375c-12.2-1.1-28.4,2.6-36.6,10"/>
	</g>
	<g id="Balls">
		<g class="st4">
			<defs>
				<circle id="XMLID_00000076596793236298698550000014588863928309384604_" cx="1008.6" cy="569.3" r="28.9"/>
			</defs>
			<clipPath id="XMLID_00000056392122438733926410000005293192202478881162_">
				<use xlink:href="#XMLID_00000076596793236298698550000014588863928309384604_"  style="overflow:visible;"/>
			</clipPath>
			
				<ellipse transform="matrix(0.9538 -0.3005 0.3005 0.9538 -123.51 333.926)" style="clip-path:url(#XMLID_00000056392122438733926410000005293192202478881162_);fill:none;stroke:#442ceb;stroke-miterlimit:10;" cx="1023.8" cy="568.5" rx="29.1" ry="32.8"/>
			
				<line style="clip-path:url(#XMLID_00000056392122438733926410000005293192202478881162_);fill:none;stroke:#442ceb;stroke-miterlimit:10;" x1="982.4" y1="550.1" x2="1031.2" y2="594.4"/>
			
				<ellipse transform="matrix(0.9538 -0.3005 0.3005 0.9538 -130.2334 331.4061)" style="clip-path:url(#XMLID_00000056392122438733926410000005293192202478881162_);fill:none;stroke:#442ceb;stroke-miterlimit:10;" cx="1012.3" cy="589.1" rx="31.9" ry="32.8"/>
			
				<use xlink:href="#XMLID_00000076596793236298698550000014588863928309384604_"  style="overflow:visible;fill:none;stroke:#442ceb;stroke-miterlimit:10;"/>
		</g>
	</g>
	<path class="st6" d="M711.8,337.9c2.5-1.4,1.2-0.7,3.7-2.1"/>
</g>
</svg>
