<?xml version="1.0" encoding="utf-8"?>
<!-- Generator: Adobe Illustrator 28.0.0, SVG Export Plug-In . SVG Version: 6.00 Build 0)  -->
<svg version="1.1" xmlns="http://www.w3.org/2000/svg" xmlns:xlink="http://www.w3.org/1999/xlink" x="0px" y="0px"
	 viewBox="0 0 286.2 333.9" style="enable-background:new 0 0 286.2 333.9;" xml:space="preserve">
<style type="text/css">
	.st0{display:none;fill:none;stroke:#000000;stroke-miterlimit:10;}
	.st1{fill:none;stroke:#000000;stroke-miterlimit:10;}
	.st2{fill:#FFFFFF;stroke:#000000;stroke-width:2;stroke-miterlimit:10;}
	.st3{display:none;}
	.st4{display:inline;fill:#FFFFFF;stroke:#000000;stroke-width:1.5;stroke-miterlimit:10;}
	.st5{display:inline;}
	.st6{display:inline;fill:none;stroke:#000000;stroke-miterlimit:10;}
</style>
<g id="Layer_1">
	<polygon class="st0" points="248,157.4 216.5,137.1 200.4,173 187.8,137.5 154.2,158.8 165.5,121.7 127.2,120.2 157.9,95.6 
		129.6,72 168,69.3 160.5,32.5 192,52.8 208.1,16.9 220.7,52.4 254.3,31.1 243.1,68.2 281.3,69.7 250.6,94.3 278.9,117.9 
		240.5,120.6 	"/>
	<circle class="st1" cx="199.4" cy="105.9" r="78.8"/>
</g>
<g id="Layer_3">
	<path class="st2" d="M67.4,298.3L40,298.4c-14.3,0-25.9-10.5-25.9-23.6V92.2c0-13,11.6-23.6,25.9-23.6h135.3
		c14.3,0,25.9,10.5,25.9,23.6v182.7c0,13-11.6,23.6-25.9,23.6h-67.7c0,0-31.3,1.3-14.6,30.7c0,0-34-6.7-34.5-30.8"/>
	<path d="M172.2,67.1c21.1,0.6,30.8,16.3,30.8,26.9c0,0,2.3,91.1-0.8,90.8c-45-4.4-80-40-80-83.2c0-12,2.8-24,7.8-34.2L172.2,67.1z"
		/>
</g>
<g id="Layer_2" class="st3">
	<path class="st4" d="M239.9,298.5H173c-0.1,0-0.1,0-0.2-0.1l-39.2-21.1c-0.5-0.2-0.5-1,0-1.3l39.2-21.1c0.1,0,0.1-0.1,0.2-0.1h66.9
		c2.1,0,3.8,2,3.8,4.6v34.4C243.8,296.4,242,298.5,239.9,298.5z"/>
	<path class="st5" d="M140.1,279.9l-6.4-3.2l6.4-3.2l0.4,1.5c0.3,1.1,0.3,2.2,0,3.3L140.1,279.9z"/>
	<polyline class="st6" points="176.3,254.9 179.8,261.8 176.3,269.6 180.3,277.7 176.3,284.9 180.3,291.6 176.3,298.5 	"/>
	<line class="st6" x1="191.2" y1="276.7" x2="240.5" y2="276.7"/>
	<line class="st6" x1="191.2" y1="261.7" x2="240.5" y2="261.7"/>
	<line class="st6" x1="190.5" y1="291.7" x2="239.8" y2="291.7"/>
</g>
</svg>
