<?xml version="1.0" encoding="utf-8"?>
<!-- Generator: Adobe Illustrator 28.0.0, SVG Export Plug-In . SVG Version: 6.00 Build 0)  -->
<svg version="1.1" id="Layer_1" xmlns="http://www.w3.org/2000/svg" xmlns:xlink="http://www.w3.org/1999/xlink" x="0px" y="0px"
	 viewBox="0 0 500 500" style="enable-background:new 0 0 500 500;" xml:space="preserve">
<style type="text/css">
	.st0{fill:#FFFFFF;}
</style>
<g>
	<circle class="st0" cx="133.5" cy="130.8" r="119.3"/>
	<path d="M133.5,12c31.7,0,61.6,12.4,84,34.8c22.4,22.4,34.8,52.3,34.8,84s-12.4,61.6-34.8,84c-22.4,22.4-52.3,34.8-84,34.8
		s-61.6-12.4-84-34.8s-34.8-52.3-34.8-84s12.4-61.6,34.8-84S101.8,12,133.5,12 M133.5,11C67.4,11,13.7,64.6,13.7,130.8
		s53.6,119.8,119.8,119.8S253.4,197,253.4,130.8S199.7,11,133.5,11L133.5,11z"/>
</g>
<g>
	
		<ellipse transform="matrix(0.1891 -0.982 0.982 0.1891 174.1515 472.5201)" class="st0" cx="373.2" cy="130.8" rx="119.3" ry="119.3"/>
	<path d="M373.2,12c31.7,0,61.6,12.4,84,34.8s34.8,52.3,34.8,84s-12.4,61.6-34.8,84s-52.3,34.8-84,34.8s-61.6-12.4-84-34.8
		c-22.4-22.4-34.8-52.3-34.8-84s12.4-61.6,34.8-84C311.6,24.4,341.4,12,373.2,12 M373.2,11C307,11,253.4,64.6,253.4,130.8
		S307,250.6,373.2,250.6S493,197,493,130.8S439.4,11,373.2,11L373.2,11z"/>
</g>
<g>
	<circle class="st0" cx="133.5" cy="370.5" r="119.3"/>
	<path d="M133.5,251.6c31.7,0,61.6,12.4,84,34.8c22.4,22.4,34.8,52.3,34.8,84s-12.4,61.6-34.8,84c-22.4,22.4-52.3,34.8-84,34.8
		s-61.6-12.4-84-34.8s-34.8-52.3-34.8-84s12.4-61.6,34.8-84C72,264,101.8,251.6,133.5,251.6 M133.5,250.6
		c-66.2,0-119.8,53.6-119.8,119.8s53.6,119.8,119.8,119.8s119.8-53.6,119.8-119.8S199.7,250.6,133.5,250.6L133.5,250.6z"/>
</g>
<g>
	
		<ellipse transform="matrix(0.2298 -0.9732 0.9732 0.2298 -73.1136 648.5414)" class="st0" cx="373.2" cy="370.5" rx="119.3" ry="119.3"/>
	<path d="M373.2,251.6c31.7,0,61.6,12.4,84,34.8c22.4,22.4,34.8,52.3,34.8,84s-12.4,61.6-34.8,84s-52.3,34.8-84,34.8
		s-61.6-12.4-84-34.8c-22.4-22.4-34.8-52.3-34.8-84s12.4-61.6,34.8-84C311.6,264,341.4,251.6,373.2,251.6 M373.2,250.6
		c-66.2,0-119.8,53.6-119.8,119.8S307,490.3,373.2,490.3S493,436.6,493,370.5S439.4,250.6,373.2,250.6L373.2,250.6z"/>
</g>
</svg>
