<?xml version="1.0" encoding="utf-8"?>
<!-- Generator: Adobe Illustrator 28.0.0, SVG Export Plug-In . SVG Version: 6.00 Build 0)  -->
<svg version="1.1" id="Layer_1" xmlns="http://www.w3.org/2000/svg" xmlns:xlink="http://www.w3.org/1999/xlink" x="0px" y="0px"
	 viewBox="0 0 159 190" style="enable-background:new 0 0 159 190;" xml:space="preserve">
<style type="text/css">
	.st0{fill:none;stroke:#000000;stroke-miterlimit:10;stroke-dasharray:9,11;}
	.st1{fill:none;stroke:#000000;stroke-width:0.9999;stroke-miterlimit:10.0002;}
	.st2{fill:none;stroke:#000000;stroke-width:1;stroke-miterlimit:9.9996;}
	.st3{fill:none;stroke:#000000;stroke-width:2;stroke-miterlimit:10;}
</style>
<g id="Layer_1_00000076583500000653300520000009214450726827203770_">
</g>
<g id="Layer_2_00000161610854828792536330000017356790856274089385_">
	<line class="st0" x1="152" y1="153.5" x2="152.9" y2="75.4"/>
	
		<ellipse transform="matrix(9.380393e-02 -0.9956 0.9956 9.380393e-02 -20.488 295.0853)" class="st1" cx="151.9" cy="158.8" rx="5.3" ry="5.8"/>
	
		<ellipse transform="matrix(0.9989 -4.649576e-02 4.649576e-02 0.9989 -3.536 7.1766)" class="st2" cx="152.5" cy="79.6" rx="5.8" ry="5.3"/>
	<path class="st3" d="M9.3,124.3c0-39.5,32.1-71.6,71.6-71.6s71.6,32.1,71.6,71.6"/>
	<line class="st0" x1="8.7" y1="158.6" x2="10.8" y2="79.6"/>
	
		<ellipse transform="matrix(9.380393e-02 -0.9956 0.9956 9.380393e-02 -155.5304 157.0047)" class="st1" cx="8.5" cy="163.9" rx="5.3" ry="5.8"/>
	
		<ellipse transform="matrix(0.9989 -4.649553e-02 4.649553e-02 0.9989 -3.6895 0.579)" class="st2" cx="10.6" cy="79.6" rx="5.8" ry="5.3"/>
</g>
</svg>
