<?xml version="1.0" encoding="utf-8"?>
<!-- Generator: Adobe Illustrator 28.0.0, SVG Export Plug-In . SVG Version: 6.00 Build 0)  -->
<svg version="1.1" id="Layer_1" xmlns="http://www.w3.org/2000/svg" xmlns:xlink="http://www.w3.org/1999/xlink" x="0px" y="0px"
	 viewBox="0 0 300 300" style="enable-background:new 0 0 300 300;" xml:space="preserve">
<style type="text/css">
	.st0{fill:none;stroke:#442ceb;stroke-width:15;stroke-miterlimit:30;}
</style>
<path class="st0" d="M151.8,35c-4.5-13.7-35.4-27.1-54.7-27.1C77,7.9,58.3,13.8,44,30.7c-13.9,16.4-19.3,52-10.9,81.7
	c14.3,50.1,115.2,129.2,119.1,129.2c3.9-0.1,104.7-79.1,119.1-129.2c8.5-29.7,3-65.4-10.9-81.7c-14.3-16.9-33.1-22.8-53.2-22.8
	c-19.3,0-50.3,13.4-54.8,27.1H151.8z"/>
<path class="st0" d="M152.1,87.5c-4.5-13.7-35.3-27.1-54.6-27.1c-20.1,0-38.8,5.9-53.2,22.8c-13.9,16.4-19.3,52-10.9,81.7
	C47.9,215,148.7,294,152.6,294.1c3.9-0.1,104.7-79.1,119.1-129.2c8.5-29.7,3-65.4-10.9-81.7c-14.3-16.9-33.1-22.8-53.2-22.8
	c-19.3,0-50.8,13.4-55.3,27.1H152.1z"/>
<line class="st0" x1="152.2" y1="35" x2="152.2" y2="87.5"/>
<line class="st0" x1="152.2" y1="241.7" x2="152.2" y2="294.1"/>
</svg>
