<?xml version="1.0" encoding="utf-8"?>
<!-- Generator: Adobe Illustrator 28.0.0, SVG Export Plug-In . SVG Version: 6.00 Build 0)  -->
<svg version="1.1" id="Layer_1" xmlns="http://www.w3.org/2000/svg" xmlns:xlink="http://www.w3.org/1999/xlink" x="0px" y="0px"
	 viewBox="0 0 300 395" style="enable-background:new 0 0 300 395;" xml:space="preserve">
<style type="text/css">
	.st0{stroke:#363636; stroke-width:10}
</style>
<g>
	<path class="st0" d="M144.9,81.2c19.4,0,38.7,10.1,54.1,28.4c14.7,17.4,23.7,39.9,24.2,60.1c0.7,28.1-12.8,65.2-38.9,107.3
		c-14.1,22.7-29.1,42-38.6,53.2c-39.9-48.8-79.2-113.4-79.2-160.9C66.6,120.7,101.7,81.2,144.9,81.2 M144.9,66.2
		c-51.6,0-93.4,46.4-93.4,103.1c0,79.1,92.1,181.5,93.4,183.2c0,0,0,0,0.1,0c3.6,0,95.1-105,93.3-183.2
		C237.1,121.6,196.5,66.2,144.9,66.2L144.9,66.2z"/>
</g>
</svg>
