<?xml version="1.0" encoding="utf-8"?>
<!-- Generator: Adobe Illustrator 28.0.0, SVG Export Plug-In . SVG Version: 6.00 Build 0)  -->
<svg version="1.1" id="Layer_1" xmlns="http://www.w3.org/2000/svg" xmlns:xlink="http://www.w3.org/1999/xlink" x="0px" y="0px"
	 viewBox="0 0 1475.3 378.4" style="enable-background:new 0 0 1475.3 378.4;" xml:space="preserve">
<style type="text/css">
	.st0{fill:none;stroke:#442ceb;stroke-width:3;stroke-miterlimit:10;}
	.st1{
		fill:#442ceb;
	}
</style>
<path class="st0" d="M7.9,272.5c0,1.3,82.5,78.6,202.5,85.1c110.3,5.9,223.2-55.5,261.9-168.4c24.7-72-4.3-163.9-76.3-163.9
	c-60,0-98.7,51.1-90.3,126.2c8.4,75.6,89.5,195.1,242.5,185.9c61-3.7,187.1-42.4,203.3-166.2c4.7-35.7-13.8-85.1-53.5-80.9
	c-36.1,3.7-56.2,47.7-49.2,84.8c19.8,105.2,134.8,150.1,201.2,144.5c48.7-4.1,150.1-39.1,171.8-122.7c7-26.9-6.9-43.2-15.8-42
	c-11.8,1.6-18.6,18.7-15,40.2c6.4,38,57,108.5,157.6,107.5c27.9-0.3,108-16.9,159.9-84.7c13.6-17.8,27.4-20.9,30.7-1.1
	c11.6,70.9,97.1,62.8,123.5,62.8"/>
<g>
	<circle class="st1" cx="699.6" cy="89.9" r="7.3"/>
</g>
<g>
	<circle class="st1" cx="849.2" cy="319.8" r="7.3"/>
</g>
<g>
	<circle class="st1" cx="1007.3" cy="156" r="7.3"/>
</g>
<g>
	<circle class="st1" cx="540.5" cy="337.5" r="7.3"/>
</g>
<g>
	<circle class="st1" cx="209.8" cy="357.8" r="7.3"/>
</g>
<g>
	<circle class="st1"  cx="393.1" cy="23.8" r="7.3"/>
</g>
<g>
	<circle class="st1" cx="1144.7" cy="302.2" r="7.3"/>
</g>
<g>
	<circle class="st1" cx="1328.2" cy="203.7" r="7.3"/>
</g>
</svg>
