<?xml version="1.0" encoding="utf-8"?>
<!-- Generator: Adobe Illustrator 26.5.0, SVG Export Plug-In . SVG Version: 6.00 Build 0)  -->
<svg version="1.1" xmlns="http://www.w3.org/2000/svg" xmlns:xlink="http://www.w3.org/1999/xlink" x="0px" y="0px"
	 viewBox="0 0 209.6 186.4" style="enable-background:new 0 0 209.6 186.4;" xml:space="preserve">
<style type="text/css">
	.st0{fill:none;stroke:#ffcc33;stroke-width:0.5;stroke-miterlimit:10;}
	.st1{fill:none;stroke:#333740;stroke-width:0.5;stroke-miterlimit:10;}
</style>
<g id="Layer_1">

		<image style="display:none;overflow:visible;" width="1699" height="1119" xlink:href="../../../../../Fotolia_156245459_Subscription_Monthly_M.jpg"  transform="matrix(0.24 0 0 0.24 -78.2794 -0.6912)">
	</image>
</g>
<g id="Layer_3">
	<path class="st0" d="M48.3,50.2c-0.2,0-0.3,0.1-0.5,0.1c-27.5,14.4-27.5,50.6-26.4,61.8c0.1,0.6,3,0.7,6-6.4
		c2.5-5.9,17.4-14.9,21-18.6c1.5-1.6-3-9.7-4.8-12.6c-0.3-0.6,5.7,7.3,7.9,8.5c3.8,2.1,10.4-11.2,9.9-13.5c-0.6-2.8-0.6-4.5-0.4-5.4
		c0-0.3,1.6,3.2,2,2.9c3.7-2.7,1.7-10.9-3-14.3C55.8,49.8,49.6,50.1,48.3,50.2z"/>
	<path class="st0" d="M48.6,48.3c35.8-37.1,57.5-30.4,76.2-13.4c0,0-11.3,13.4-15.5,16.5c-3.4,2.5,1.3-23.3-4.3-24.6
		c-5.2-1.1-7.3,5.3-8.6,7.5c-1.9,3.5-15.1,10.5-17.8,11.9c-0.2,0.1-0.4,0-0.6-0.2c-0.1-0.1-0.9,2.1-2.5,2c-1.1,0-2.7-1.3-3.4-2
		c-0.1-0.1-4.6,0.8-5.9-1.7c-1.4-2.5-0.9-7-0.7-8.9c0-0.3-0.8,0.4-0.7,11.3c0,1-0.4,2.7-1.1,3.4c-1.7,2-3.3,1.1-3.9,0.7
		c-0.1-0.1-1.3,0.7-1.3,0.7"/>
	<path class="st0" d="M83.7,147.6c0,0-4-7.5-7.1-7c-1.8,0.3-4.3,0.1-4-0.2c1.3-1.1,3-4.2,2.7-4.7c-3-4.4-17.5-22.3-19.5-31.5
		c-0.1-0.3-3.9-6.5-3.5-9c0-0.3-0.9-1.3-1.1-1.8c0-0.1,0.6-2,0.2-2.8c-0.1-0.3-2-1.4-2.3-1.4c-0.1,0-2.5,0.2-2.5,0.2"/>
	<path class="st0" d="M27.2,106.9c0,8.5,2.7,20.1,8.6,29.6c2.4,3.8,9.5,8,16.8,11.3c4.6,2.1,10.9,3.1,16.9,4.1"/>
	<path class="st0" d="M146,140.9c0,0-0.4,4.4-1.6,5.8c-3.3,3.7-30.4,23.1-53.2,18.8c-4.9-0.9-21.7-7.3-22.3-11.2
		c-0.5-3.5,2.7-10,5.5-11.1c0.2-0.1,21.9,12.7,30.1,16.1c2.7,1.1,9.2-0.4,14.9-2.2c6-1.9,24.5-15.4,24.5-15.4"/>
	<path class="st0" d="M114,54.6c4.8-17.9,17.6-25.5,24.5-26c0.3,0,10.5,7.9,15.1,13.7c3.8,4.8,10.2,20.4,11.6,27.6
		c0.4,1.9,0.7,2.6,0.8,3.1c0.2,1.9-2.4,5.3-3.5,5.6c-0.2,0.1-1.3,0-1.7-0.1c-0.1,0-1-1.7-1.2-2.3c-0.1-0.2-0.6-0.2-0.9-0.3
		c-0.2,0-2.9-3.1-3.4-4.3c-0.1-0.2-0.5-0.3-1-0.2c-0.3,0.1-2.5-2.6-3.6-2.7c-6.4-0.4-8.4-6.3-8.8-7.8c0-0.2,0.8-2.1,1.1-2.9
		c0.1-0.2-2.3-1.9-3-2.4c-0.1-0.1-2.7,2.2-3.6,2.8c-2.9,2.1-14.9-12.2-17.3-10.3c-9.2,7.1-3.2,10.6-1.5,11.4
		c0.2,0.1-1.2-2.8-0.7-3.8c1.1-1.9,12.6-0.5,12.6-0.5"/>
	<path class="st0" d="M165.2,77.4c16.2,31.9,4.3,53-8.8,58.8c-4.1,1.8-11.9,2.4-18.5,0.3c-2.8-0.9-3.6-12.3-0.6-14.6
		c12.6-9.7,19.7-18.9,21.2-21.2c0.1-0.2-0.5-4-7.4-6.4c-6.7-2.3-17-0.5-21.2-4c-1.9-1.5-1.6-6.1-1.3-8.2c0-0.4-0.4-2.3-0.4-3.6
		c0-3.4,5.4-10.2,7.6-12.1c2.4-2.1,8.3,0,8.3,0"/>
	<path class="st0" d="M96.4,146.6c8.6-0.5,18.4-3.4,37.4-3.4c1.4,0,3.4,2.2,5.1,3.8c1.1,1.1-4.9,3.5-5.9,4c-0.5,0.3-1.3-0.2-1.7-0.6
		c-0.1-0.1-2.6,0.8-5.2,1.3c-2.3,0.4-4.6,0.4-5.6,0.7c-2.6,0.6-9.2,0.2-11.1,0.3c-1.5,0.1-5.1,1.7-6.5,1.9
		C100.2,154.8,96.4,146.6,96.4,146.6L96.4,146.6z"/>
	<path class="st0" d="M57.6,99.4c0,2.1,5.2,6.1,12.5,4.5c1.1-0.3,4.5,0.5,6.1,0.2c3.2-0.7,1.2-8.3,0.5-15.5
		c-0.4-3.9-0.9-11.6-0.7-14.1c0.1-1.5,7.6,1,9.5,3.5c1.9,2.5,6.2,6.9,7.9,8.2c1,0.7,4.4-6.3,5.6-8.5c0.2-0.4,4.2,4.2,8.6,2.3
		c4.3-1.9,12.1,9.9,12.1,9.9"/>
	<path class="st0" d="M119.3,61.6c0,8.8,0,17.2,1.2,24.7c1.9,11.8,5.3,19.1,14.6,25.5c4,2.8,2.7,5.9,4.6,8.1"/>
	<path class="st0" d="M102.9,118.3c5.1,0.7,17.5,2.8,34.4,3.6"/>
	<path class="st0" d="M97.8,145.4c0-13.6,4-28,5-26.9c3.1,3.4-2.3,21.1-0.6,27"/>
	<path class="st0" d="M107.3,118.3c0-10.5,3.5-13.8,8.9-17.5c4.2-2.9,4.4-4.7,5.4-5.8"/>
	<path class="st0" d="M72.5,104.4c0,1.6,6.6,4,6.7,5.5c0.3,3.9-1.9,4.4-0.8,7.9c0.3,1.2,3,5.1,3.4,6.2c2.2,5.7,7.6,11.6,11.4,15.2
		c3.4,3.2,1.2,4.7,2.4,5.6c0.9,0.7,0.1,1.1,1.3,1.1"/>
</g>
<g id="Layer_2">
	<path class="st1" d="M47.1,52.9c-0.2,0-0.3,0.1-0.5,0.1c-27.5,14.4-27.5,50.6-26.4,61.8c0.1,0.6,3,0.7,6-6.4
		c2.5-5.9,17.4-14.9,21-18.6c1.5-1.6-3-9.7-4.8-12.6c-0.3-0.6,5.7,7.3,7.9,8.5c3.8,2.1,10.4-11.2,9.9-13.5c-0.6-2.8-0.6-4.5-0.4-5.4
		c0-0.3,1.6,3.2,2,2.9c3.7-2.7,1.7-10.9-3-14.3C54.6,52.5,48.4,52.8,47.1,52.9z"/>
	<path class="st1" d="M47.4,50.9c35.8-37.1,57.5-30.4,76.2-13.4c0,0-11.3,13.4-15.5,16.5c-3.4,2.5,1.3-23.3-4.3-24.6
		c-5.2-1.1-7.3,5.3-8.6,7.5c-1.9,3.5-15.1,10.5-17.8,11.9c-0.2,0.1-0.4,0-0.6-0.2c-0.1-0.1-0.9,2.1-2.5,2c-1.1,0-2.7-1.3-3.4-2
		c-0.1-0.1-4.6,0.8-5.9-1.7c-1.4-2.5-0.9-7-0.7-8.9c0-0.3-0.8,0.4-0.7,11.3c0,1-0.4,2.7-1.1,3.4c-1.7,2-3.3,1.1-3.9,0.7
		c-0.1-0.1-1.3,0.7-1.3,0.7"/>
	<path class="st1" d="M82.5,150.3c0,0-4-7.5-7.1-7c-1.8,0.3-4.3,0.1-4-0.2c1.3-1.1,3-4.2,2.7-4.7c-3-4.4-17.5-22.3-19.5-31.5
		c-0.1-0.3-3.9-6.5-3.5-9c0-0.3-0.9-1.3-1.1-1.8c0-0.1,0.6-2,0.2-2.8c-0.1-0.3-2-1.4-2.3-1.4c-0.1,0-2.5,0.2-2.5,0.2"/>
	<path class="st1" d="M26.1,109.6c0,8.5,2.7,20.1,8.6,29.6c2.4,3.8,9.5,8,16.8,11.3c4.6,2.1,10.9,3.1,16.9,4.1"/>
	<path class="st1" d="M144.8,143.6c0,0-0.4,4.4-1.6,5.8c-3.3,3.7-30.4,23.1-53.2,18.8c-4.9-0.9-21.7-7.3-22.3-11.2
		c-0.5-3.5,2.7-10,5.5-11.1c0.2-0.1,21.9,12.7,30.1,16.1c2.7,1.1,9.2-0.4,14.9-2.2c6-1.9,24.5-15.4,24.5-15.4"/>
	<path class="st1" d="M112.8,57.3c4.8-17.9,17.6-25.5,24.5-26c0.3,0,10.5,7.9,15.1,13.7c3.8,4.8,10.2,20.4,11.6,27.6
		c0.4,1.9,0.7,2.6,0.8,3.1c0.2,1.9-2.4,5.3-3.5,5.6c-0.2,0.1-1.3,0-1.7-0.1c-0.1,0-1-1.7-1.2-2.3c-0.1-0.2-0.6-0.2-0.9-0.3
		c-0.2,0-2.9-3.1-3.4-4.3c-0.1-0.2-0.5-0.3-1-0.2c-0.3,0.1-2.5-2.6-3.6-2.7c-6.4-0.4-8.4-6.3-8.8-7.8c0-0.2,0.8-2.1,1.1-2.9
		c0.1-0.2-2.3-1.9-3-2.4c-0.1-0.1-2.7,2.2-3.6,2.8c-2.9,2.1-14.9-12.2-17.3-10.3c-9.2,7.1-3.2,10.6-1.5,11.4
		c0.2,0.1-1.2-2.8-0.7-3.8c1.1-1.9,12.6-0.5,12.6-0.5"/>
	<path class="st1" d="M164.1,80.1c16.2,31.9,4.3,53-8.8,58.8c-4.1,1.8-11.9,2.4-18.5,0.3c-2.8-0.9-3.6-12.3-0.6-14.6
		c12.6-9.7,19.7-18.9,21.2-21.2c0.1-0.2-0.5-4-7.4-6.4c-6.7-2.3-17-0.5-21.2-4c-1.9-1.5-1.6-6.1-1.3-8.2c0-0.4-0.4-2.3-0.4-3.6
		c0-3.4,5.4-10.2,7.6-12.1c2.4-2.1,8.3,0,8.3,0"/>
	<path class="st1" d="M95.2,149.2c8.6-0.5,18.4-3.4,37.4-3.4c1.4,0,3.4,2.2,5.1,3.8c1.1,1.1-4.9,3.5-5.9,4c-0.5,0.3-1.3-0.2-1.7-0.6
		c-0.1-0.1-2.6,0.8-5.2,1.3c-2.3,0.4-4.6,0.4-5.6,0.7c-2.6,0.6-9.2,0.2-11.1,0.3c-1.5,0.1-5.1,1.7-6.5,1.9
		C99.1,157.5,95.2,149.2,95.2,149.2L95.2,149.2z"/>
	<path class="st1" d="M56.4,102.1c0,2.1,5.2,6.1,12.5,4.5c1.1-0.3,4.5,0.5,6.1,0.2c3.2-0.7,1.2-8.3,0.5-15.5
		c-0.4-3.9-0.9-11.6-0.7-14.1c0.1-1.5,7.6,1,9.5,3.5c1.9,2.5,6.2,6.9,7.9,8.2c1,0.7,4.4-6.3,5.6-8.5c0.2-0.4,4.2,4.2,8.6,2.3
		c4.3-1.9,12.1,9.9,12.1,9.9"/>
	<path class="st1" d="M118.2,64.3c0,8.8,0,17.2,1.2,24.7c1.9,11.8,5.3,19.1,14.6,25.5c4,2.8,2.7,5.9,4.6,8.1"/>
	<path class="st1" d="M101.7,121c5.1,0.7,17.5,2.8,34.4,3.6"/>
	<path class="st1" d="M96.6,148.1c0-13.6,4-28,5-26.9c3.1,3.4-2.3,21.1-0.6,27"/>
	<path class="st1" d="M106.2,121c0-10.5,3.5-13.8,8.9-17.5c4.2-2.9,4.4-4.7,5.4-5.8"/>
	<path class="st1" d="M71.4,107.1c0,1.6,6.6,4,6.7,5.5c0.3,3.9-1.9,4.4-0.8,7.9c0.3,1.2,3,5.1,3.4,6.2c2.2,5.7,7.6,11.6,11.4,15.2
		c3.4,3.2,1.2,4.7,2.4,5.6c0.9,0.7,0.1,1.1,1.3,1.1"/>
</g>
</svg>
