<?xml version="1.0" encoding="utf-8"?>
<!-- Generator: Adobe Illustrator 28.0.0, SVG Export Plug-In . SVG Version: 6.00 Build 0)  -->
<svg version="1.1" id="Layer_1" xmlns="http://www.w3.org/2000/svg" xmlns:xlink="http://www.w3.org/1999/xlink" x="0px" y="0px"
	 viewBox="0 0 500 500" style="enable-background:new 0 0 500 500;" xml:space="preserve">
  <defs>
    <linearGradient id="myGradient" gradientTransform="rotate(90)">
      <stop offset="5%" stop-color="#363636" />
      <stop offset="95%" stop-color="#363636" />
    </linearGradient>
  </defs>
<g>
	<path fill="url('#myGradient')" class="st0" d="M252.6,487.5c-11.4,0-20.7-9.3-20.7-20.7V300.6L114.2,418c-3.9,3.9-9.1,6-14.6,6c-5.5,0-10.7-2.2-14.7-6.1
		c-8.1-8.1-8-21.2,0-29.3l117.5-117.2H35.3c-5.5,0-10.7-2.2-14.6-6.1c-3.9-3.9-6.1-9.1-6.1-14.6c0-11.4,9.3-20.7,20.7-20.7h167.4
		L85.4,112.4c-3.9-3.9-6-9.1-6-14.6c0-5.5,2.2-10.7,6.1-14.7c3.9-3.9,9.1-6,14.6-6c5.5,0,10.8,2.2,14.7,6.1l117.2,117.5v-166
		c0-11.4,9.3-20.7,20.7-20.7c5.5,0,10.7,2.2,14.6,6.1c3.9,3.9,6.1,9.1,6.1,14.6v166.2L391,83.6c3.9-3.9,9.1-6,14.6-6
		c5.5,0,10.7,2.2,14.7,6.1c3.9,3.9,6,9.1,6,14.6c0,5.5-2.2,10.8-6.1,14.7L302.7,230.1h164.7c11.4,0,20.7,9.3,20.7,20.7
		c0,11.4-9.3,20.7-20.7,20.7H302.5l117.3,117.7c3.9,3.9,6.1,9.1,6,14.6c0,5.5-2.2,10.7-6.1,14.6c-3.9,3.9-9.1,6-14.6,6
		c-5.5,0-10.7-2.2-14.7-6.1L273.3,300.8v166C273.3,478.2,264,487.5,252.6,487.5z"/>
	<path fill="url('#myGradient')" d="M252.6,14.5c5.4,0,10.5,2.1,14.3,5.9c3.8,3.8,5.9,8.9,5.9,14.3v165v2.4l1.7-1.7L391.3,83.9c3.8-3.8,8.9-5.9,14.3-5.9
		c5.4,0,10.5,2.1,14.3,5.9c3.8,3.8,5.9,8.9,5.9,14.3c0,5.4-2.1,10.5-5.9,14.3L303.2,228.9l-1.7,1.7h2.4h163.5
		c11.1,0,20.2,9.1,20.2,20.2c0,11.1-9.1,20.2-20.2,20.2H303.7h-2.4l1.7,1.7l116.5,116.8c3.8,3.8,5.9,8.9,5.9,14.3
		c0,5.4-2.1,10.5-5.9,14.3c-3.8,3.8-8.9,5.9-14.3,5.9c-5.4,0-10.5-2.1-14.3-5.9L274.5,301.4l-1.7-1.7v2.4v164.7
		c0,11.1-9.1,20.2-20.2,20.2c-11.1,0-20.2-9.1-20.2-20.2v-165v-2.4l-1.7,1.7L113.9,417.6c-3.8,3.8-8.9,5.9-14.3,5.9
		c-5.4,0-10.5-2.1-14.3-5.9c-7.9-7.9-7.8-20.7,0-28.6L202,272.7l1.7-1.7h-2.4h-166c-5.4,0-10.5-2.1-14.3-5.9
		c-3.8-3.8-5.9-8.9-5.9-14.3c0-11.1,9.1-20.2,20.2-20.2h166.2h2.4l-1.7-1.7L85.8,112c-3.8-3.8-5.9-8.9-5.9-14.3
		c0-5.4,2.1-10.5,5.9-14.3c3.8-3.8,8.9-5.9,14.3-5.9c5.4,0,10.5,2.1,14.3,5.9l116.3,116.7l1.7,1.7v-2.4V34.7
		C232.4,23.6,241.5,14.5,252.6,14.5 M252.6,13.5c-11.7,0-21.2,9.5-21.2,21.2v164.7L115.1,82.8c-4.1-4.2-9.6-6.2-15-6.2
		c-5.4,0-10.8,2.1-15,6.2c-4.2,4.1-6.2,9.6-6.2,15c0,5.4,2.1,10.8,6.2,15l116.5,116.8H35.3c-11.7,0-21.2,9.5-21.2,21.2
		c0,5.9,2.4,11.2,6.2,15s9.1,6.2,15,6.2h166L84.7,388.3c-8.3,8.3-8.3,21.7,0,30c4.1,4.2,9.6,6.2,15,6.2c5.4,0,10.8-2.1,15-6.2
		l116.8-116.5v165c0,11.7,9.5,21.2,21.2,21.2c11.7,0,21.2-9.5,21.2-21.2V302.1l116.3,116.7c4.1,4.2,9.6,6.2,15,6.2
		c5.4,0,10.8-2.1,15-6.2c8.3-8.3,8.3-21.7,0.1-30L303.7,272h163.7c11.7,0,21.2-9.5,21.2-21.2c0-11.7-9.5-21.2-21.2-21.2H303.9
		l116.7-116.3c4.2-4.1,6.2-9.6,6.2-15c0-5.4-2.1-10.8-6.2-15c-4.1-4.2-9.6-6.2-15-6.2c-5.4,0-10.8,2.1-15,6.2L273.8,199.7v-165
		c0-5.9-2.4-11.2-6.2-15C263.8,15.9,258.5,13.5,252.6,13.5L252.6,13.5z"/>
</g>
</svg>
