<?xml version="1.0" encoding="utf-8"?>
<!-- Generator: Adobe Illustrator 28.0.0, SVG Export Plug-In . SVG Version: 6.00 Build 0)  -->
<svg version="1.1" id="Layer_1" xmlns="http://www.w3.org/2000/svg" xmlns:xlink="http://www.w3.org/1999/xlink" x="0px" y="0px"
	 viewBox="0 0 346.4 361.4" style="enable-background:new 0 0 346.4 361.4;" xml:space="preserve">
<style type="text/css">
	.st0{fill:#DADADA;}
	.st1{fill:none;stroke:#DADADA;stroke-width:11;stroke-miterlimit:10;}
</style>
<g>
	<path class="st0" d="M173.2,38.9c38.8,0,75.3,15.5,102.8,43.6c27.5,28.2,42.7,65.6,42.7,105.5s-15.2,77.3-42.7,105.5
		c-27.5,28.1-64,43.6-102.8,43.6s-75.3-15.5-102.8-43.6C42.9,265.4,27.7,227.9,27.7,188s15.2-77.3,42.7-105.5
		C97.9,54.4,134.4,38.9,173.2,38.9 M173.2,27.9C86.8,27.9,16.7,99.6,16.7,188s70.1,160.1,156.5,160.1S329.7,276.4,329.7,188
		S259.6,27.9,173.2,27.9L173.2,27.9z"/>
</g>
<g>
	<ellipse class="st0" cx="232.2" cy="152.5" rx="21.3" ry="21.7"/>
</g>
<path class="st1" d="M259.1,207.8c-4.8,34.6-38.5,73.6-85.9,73.6s-80.6-36.7-85.9-73.6"/>
<g>
	<ellipse class="st0" cx="116.3" cy="150.3" rx="21.3" ry="21.7"/>
</g>
</svg>
