<?xml version="1.0" encoding="utf-8"?>
<!-- Generator: Adobe Illustrator 28.0.0, SVG Export Plug-In . SVG Version: 6.00 Build 0)  -->
<svg version="1.1" id="Layer_1" xmlns="http://www.w3.org/2000/svg" xmlns:xlink="http://www.w3.org/1999/xlink" x="0px" y="0px"
	 viewBox="0 0 500 500" style="enable-background:new 0 0 500 500;" xml:space="preserve">
 <style type="text/css">
 .st0{
   stroke:#442ceb; fill:none; stroke-width:30;
 }
 </style>
<g>
	<path class="st0" d="M249.8,482.9c-62.4,0-121.1-24.3-165.2-68.4c-44.1-44.1-68.4-102.8-68.4-165.2S40.5,128.2,84.6,84.1
		c44.1-44.1,102.8-68.4,165.2-68.4s121.1,24.3,165.2,68.4c44.1,44.1,68.4,102.8,68.4,165.2s-24.3,121.1-68.4,165.2
		S312.3,482.9,249.8,482.9z"/>
	<path class="st0" d="M249.8,16.1c31.5,0,62,6.2,90.8,18.3c27.8,11.7,52.7,28.6,74.1,50c21.4,21.4,38.2,46.3,50,74.1
		c12.2,28.7,18.3,59.3,18.3,90.8s-6.2,62-18.3,90.8c-11.7,27.8-28.6,52.7-50,74.1c-21.4,21.4-46.3,38.2-74.1,50
		c-28.7,12.2-59.3,18.3-90.8,18.3s-62-6.2-90.8-18.3c-27.8-11.7-52.7-28.6-74.1-50c-21.4-21.4-38.2-46.3-50-74.1
		c-12.2-28.7-18.3-59.3-18.3-90.8s6.2-62,18.3-90.8c11.7-27.8,28.6-52.7,50-74.1c21.4-21.4,46.3-38.2,74.1-50
		C187.8,22.3,218.4,16.1,249.8,16.1 M249.8,15.1C120.5,15.1,15.7,120,15.7,249.3s104.8,234.2,234.2,234.2S484,378.6,484,249.3
		S379.2,15.1,249.8,15.1L249.8,15.1z"/>
</g>
</svg>
